<svg width="137" height="138" viewBox="0 0 137 138" fill="none" xmlns="http://www.w3.org/2000/svg">
<g clip-path="url(#clip0_1_38)">
<path fill-rule="evenodd" clip-rule="evenodd" d="M0 2.67061C0 4.13945 0.149366 5.34122 0.331923 5.34122C0.514481 5.34122 0.73966 6.4045 0.832825 7.70395C0.927498 9.0301 1.19568 10.1319 1.44386 10.2155C1.7211 10.3089 1.88593 11.2864 1.88593 12.8399C1.88593 14.5316 2.06509 15.4964 2.4517 15.8875C2.81569 16.2556 3.01748 17.1983 3.01748 18.5306C3.01748 19.6698 3.1627 20.6018 3.34035 20.6018C3.51763 20.6018 3.76204 21.9291 3.8835 23.551C4.00457 25.1732 4.28369 26.5607 4.50359 26.6348C4.72349 26.7092 4.90341 27.5927 4.90341 28.5988C4.90341 29.6049 5.15801 31.0443 5.46918 31.7978C5.78036 32.5509 6.03496 34.0312 6.03496 35.0872C6.03496 36.1433 6.18508 37.007 6.36839 37.007C6.55133 37.007 6.81951 38.123 6.96397 39.4869C7.10843 40.8508 7.38264 41.9667 7.57388 41.9667C7.76473 41.9667 7.92089 43.1685 7.92089 44.6373C7.92089 46.757 8.03781 47.3079 8.48666 47.3079C8.93514 47.3079 9.05244 47.8554 9.05244 49.9469C9.05244 51.3982 9.22067 52.6427 9.42586 52.7129C9.63142 52.7827 9.91016 53.9131 10.0456 55.2244C10.1806 56.5361 10.4371 57.6089 10.6147 57.6089C10.7928 57.6089 10.9384 58.7126 10.9384 60.0616C10.9384 61.7331 11.1187 62.6964 11.5041 63.0863C11.8908 63.4773 12.0699 64.4422 12.0699 66.1338C12.0699 67.6874 12.2348 68.6648 12.512 68.7583C12.7602 68.8418 13.0283 69.9437 13.123 71.2698C13.2162 72.5693 13.4331 73.6325 13.6051 73.6325C13.7774 73.6325 13.969 74.6199 14.0313 75.8262C14.1373 77.8815 14.204 78.02 15.0874 78.02C15.8357 78.02 16.0549 77.8033 16.1496 76.9708C16.2152 76.3939 16.4275 75.9216 16.621 75.9216C16.8149 75.9216 16.9733 75.4924 16.9733 74.9678C16.9733 74.3742 17.1872 74.014 17.5391 74.014C17.9476 74.014 18.1049 73.5902 18.1049 72.488C18.1049 71.3858 18.2622 70.9619 18.6707 70.9619C19.0478 70.9619 19.2364 70.5804 19.2364 69.8174C19.2364 69.1879 19.3877 68.6728 19.5729 68.6728C19.7577 68.6728 20.0157 68.2436 20.1458 67.719C20.276 67.1945 20.549 66.7653 20.7523 66.7653C20.956 66.7653 21.1224 66.0785 21.1224 65.2392C21.1224 64.137 21.2797 63.7131 21.6881 63.7131C22.0401 63.7131 22.2539 63.353 22.2539 62.7593C22.2539 62.2348 22.4101 61.8055 22.6013 61.8055C22.7922 61.8055 23.0603 61.2905 23.1969 60.661C23.3334 60.0315 23.6016 59.5164 23.7925 59.5164C23.9837 59.5164 24.1398 59.0819 24.1398 58.5508C24.1398 58.0194 24.3944 57.486 24.7056 57.3655C25.0496 57.2319 25.2714 56.6543 25.2714 55.892C25.2714 55.1298 25.4932 54.5522 25.8372 54.4186C26.1484 54.2981 26.403 53.8506 26.403 53.424C26.403 52.9979 26.5727 52.6492 26.7801 52.6492C26.9876 52.6492 27.1573 52.1341 27.1573 51.5046C27.1573 50.7416 27.3459 50.3601 27.7231 50.3601C28.1297 50.3601 28.2889 49.9396 28.2889 48.8657C28.2889 48.0096 28.4903 47.3038 28.7604 47.2126C29.0802 47.1046 29.2318 46.155 29.2318 44.2558C29.2318 42.3566 29.0802 41.407 28.7604 41.2991C28.4447 41.1926 28.2889 40.2797 28.2889 38.5331C28.2889 36.8189 28.1312 35.8728 27.828 35.7705C27.5368 35.6725 27.3135 34.539 27.2211 32.6867C27.1407 31.076 26.9435 29.7582 26.7828 29.7582C26.6221 29.7582 26.4184 28.6102 26.3302 27.2074C26.2355 25.7046 25.985 24.594 25.7206 24.5048C25.4264 24.4056 25.2714 23.3671 25.2714 21.4965C25.2714 19.4657 25.1077 18.4741 24.7056 18.0674C24.3201 17.6775 24.1398 16.7142 24.1398 15.0428C24.1398 13.6937 23.9901 12.59 23.8068 12.59C23.6239 12.59 23.3549 11.3024 23.209 9.72865C23.0634 8.1549 22.7888 6.86728 22.599 6.86728C22.4093 6.86728 22.2539 5.76356 22.2539 4.41452C22.2539 2.7431 22.0736 1.77977 21.6881 1.38986C21.377 1.07511 21.1224 0.633698 21.1224 0.408603C21.1224 0.127808 17.8197 0 10.5612 0H0V2.67061ZM103.349 1.11288C103.349 1.72483 103.162 2.28833 102.935 2.36502C102.699 2.44437 102.433 3.93495 102.316 5.83032C102.203 7.65969 101.965 9.15638 101.787 9.15638C101.609 9.15638 101.463 10.3459 101.463 11.7999C101.463 13.6407 101.291 14.6166 100.897 15.0153C100.478 15.4392 100.331 16.4773 100.331 19.0167C100.331 21.3786 100.188 22.4942 99.8703 22.6014C99.5791 22.6994 99.3558 23.8329 99.2634 25.6852C99.1831 27.2959 98.9896 28.6137 98.8334 28.6137C98.6776 28.6137 98.4608 30.1951 98.3518 32.1282C98.2348 34.2014 97.9814 35.7011 97.7336 35.7846C97.4846 35.8686 97.3137 36.9025 97.3137 38.3274C97.3137 39.6483 97.0591 41.3452 96.748 42.0987C96.4149 42.9049 96.1822 44.6507 96.1822 46.342C96.1822 47.9226 96.0275 49.2155 95.839 49.2155C95.65 49.2155 95.3754 50.6748 95.2283 52.4584C95.0816 54.242 94.8119 55.7013 94.6289 55.7013C94.446 55.7013 94.2963 56.9706 94.2963 58.5218C94.2963 60.677 94.1627 61.3943 93.7305 61.5621C93.2854 61.7346 93.1647 62.5163 93.1647 65.2274C93.1647 67.1223 93.0127 68.6728 92.8268 68.6728C92.6408 68.6728 92.3685 70.0463 92.2218 71.725C92.075 73.4036 91.8102 74.7771 91.6341 74.7771C91.4576 74.7771 91.2629 75.9357 91.2018 77.3523C91.0936 79.8459 91.0574 79.9314 90.0529 80.0481C89.3121 80.1343 89.0157 79.9981 89.0157 79.5712C89.0157 79.2427 88.8459 78.9737 88.6385 78.9737C88.431 78.9737 88.2613 78.287 88.2613 77.4477C88.2613 76.3455 88.104 75.9216 87.6955 75.9216C87.2984 75.9216 87.1297 75.5161 87.1297 74.5592C87.1297 73.8095 86.8752 72.9389 86.564 72.6242C86.2528 72.3094 85.9982 71.5491 85.9982 70.9348C85.9982 70.3202 85.8503 69.8174 85.6693 69.8174C85.4882 69.8174 85.2318 69.1306 85.099 68.2913C84.9662 67.452 84.6901 66.7653 84.4849 66.7653C84.2801 66.7653 84.1123 66.0785 84.1123 65.2392C84.1123 64.137 83.955 63.7131 83.5465 63.7131C83.1693 63.7131 82.9807 63.3316 82.9807 62.5686C82.9807 61.9391 82.8329 61.424 82.6518 61.424C82.4708 61.424 82.2143 60.7373 82.0815 59.898C81.9487 59.0586 81.6726 58.3719 81.4674 58.3719C81.2626 58.3719 81.0948 57.6852 81.0948 56.8458C81.0948 55.7436 80.9375 55.3198 80.529 55.3198C80.1337 55.3198 79.9632 54.9169 79.9632 53.9845C79.9632 53.2501 79.8086 52.6492 79.6192 52.6492C79.4299 52.6492 79.1606 51.9624 79.0203 51.1231C78.88 50.2838 78.6107 49.597 78.4213 49.597C78.232 49.597 78.0773 49.082 78.0773 48.4525C78.0773 47.6895 77.8887 47.3079 77.5115 47.3079C77.0925 47.3079 76.9458 46.8627 76.9458 45.5911C76.9458 44.6469 76.7794 43.8743 76.5757 43.8743C76.3724 43.8743 76.0993 43.4451 75.9692 42.9205C75.8391 42.3959 75.5811 41.9667 75.3963 41.9667C75.2111 41.9667 75.0598 41.5375 75.0598 41.0129C75.0598 40.2614 74.8686 40.0592 74.1572 40.0592C73.6608 40.0592 73.1569 39.8016 73.0374 39.4869C72.7103 38.6243 51.6744 38.6243 51.6744 39.4869C51.6744 39.8016 51.4198 40.0592 51.1086 40.0592C50.7974 40.0592 50.5428 40.3167 50.5428 40.6314C50.5428 40.9462 50.3889 41.2037 50.2011 41.2037C50.0129 41.2037 49.7424 42.0621 49.5998 43.1113C49.4573 44.1604 49.1868 45.0189 48.9986 45.0189C48.8108 45.0189 48.6569 45.5339 48.6569 46.1634C48.6569 46.9264 48.4683 47.3079 48.0911 47.3079C47.6939 47.3079 47.5253 47.7135 47.5253 48.6703C47.5253 49.42 47.2707 50.2906 46.9595 50.6054C46.6484 50.9201 46.3938 51.6805 46.3938 52.2947C46.3938 52.9094 46.2459 53.4122 46.0649 53.4122C45.8838 53.4122 45.6273 54.0989 45.4945 54.9383C45.3618 55.7776 45.0857 56.4643 44.8805 56.4643C44.6757 56.4643 44.5078 57.1511 44.5078 57.9904C44.5078 59.0926 44.3506 59.5164 43.9421 59.5164C43.5649 59.5164 43.3763 59.898 43.3763 60.661C43.3763 61.2905 43.2284 61.8055 43.0474 61.8055C42.8663 61.8055 42.6098 62.4923 42.4771 63.3316C42.3443 64.1709 42.0682 64.8577 41.863 64.8577C41.6582 64.8577 41.4904 65.4403 41.4904 66.1522C41.4904 66.9511 41.2739 67.5306 40.9246 67.6664C40.5696 67.8041 40.3588 68.3874 40.3588 69.2333C40.3588 69.9742 40.1891 70.5804 39.9816 70.5804C39.7742 70.5804 39.6044 71.0955 39.6044 71.725C39.6044 72.488 39.4158 72.8695 39.0387 72.8695C38.6415 72.8695 38.4729 73.2751 38.4729 74.2319C38.4729 74.9816 38.2183 75.8522 37.9071 76.1669C37.5959 76.4817 37.3413 77.2421 37.3413 77.8563C37.3413 78.4709 37.1735 78.9737 36.9687 78.9737C36.7635 78.9737 36.4874 79.6605 36.3546 80.4998C36.2218 81.3391 35.9653 82.0259 35.7843 82.0259C35.6033 82.0259 35.4554 82.4673 35.4554 83.0068C35.4554 83.5466 35.2008 84.2455 34.8896 84.5603C34.5784 84.875 34.3238 85.6354 34.3238 86.2496C34.3238 86.8643 34.156 87.3671 33.9512 87.3671C33.746 87.3671 33.4699 88.0538 33.3371 88.8932C33.2044 89.7325 32.9479 90.4192 32.7668 90.4192C32.5858 90.4192 32.4379 90.8362 32.4379 91.3459C32.4379 91.8552 32.1833 92.5298 31.8721 92.8445C31.561 93.1593 31.3064 93.8704 31.3064 94.4251C31.3064 94.9799 31.0518 95.691 30.7406 96.0058C30.4294 96.3205 30.1748 96.995 30.1748 97.5044C30.1748 98.0141 30.0051 98.431 29.7976 98.431C29.5902 98.431 29.4204 98.9339 29.4204 99.5485C29.4204 100.163 29.1658 100.923 28.8547 101.238C28.5435 101.553 28.2889 102.423 28.2889 103.173C28.2889 104.13 28.1203 104.535 27.7231 104.535C27.3459 104.535 27.1573 104.917 27.1573 105.68C27.1573 106.309 27.0095 106.824 26.8284 106.824C26.6474 106.824 26.3909 107.511 26.2581 108.35C26.1253 109.19 25.8492 109.877 25.6441 109.877C25.4392 109.877 25.2714 110.483 25.2714 111.224C25.2714 112.069 25.0606 112.653 24.7056 112.791C24.3884 112.914 24.1398 113.481 24.1398 114.082C24.1398 114.672 23.9852 115.211 23.7966 115.281C23.6076 115.351 23.3379 116.196 23.1969 117.159C22.7492 120.221 22.5851 120.177 34.6441 120.177C44.6478 120.177 45.1223 120.145 45.7443 119.41C46.1014 118.988 46.3938 118.228 46.3938 117.72C46.3938 117.213 46.6484 116.541 46.9595 116.226C47.2707 115.911 47.5253 115.114 47.5253 114.455C47.5253 113.795 47.7799 112.998 48.0911 112.683C48.4023 112.369 48.6569 111.608 48.6569 110.994C48.6569 110.379 48.8047 109.877 48.9858 109.877C49.1668 109.877 49.4233 109.19 49.5561 108.35C49.6889 107.511 49.965 106.824 50.1701 106.824C50.375 106.824 50.5428 106.156 50.5428 105.339C50.5428 104.371 50.7397 103.778 51.1086 103.634C51.4601 103.498 51.6744 102.917 51.6744 102.099C51.6744 101.376 51.855 100.723 52.0761 100.648C52.2967 100.574 52.5736 99.787 52.6913 98.8996C52.8089 98.0125 53.0526 97.2865 53.2329 97.2865C53.4128 97.2865 53.5656 96.7287 53.5723 96.0466C53.5788 95.3644 53.8334 94.4732 54.1381 94.0661C54.4425 93.6587 54.6918 92.917 54.6918 92.4172C54.6918 91.9178 54.9464 91.2517 55.2576 90.9369C55.5688 90.6222 55.8234 89.8618 55.8234 89.2476C55.8234 88.633 55.9931 88.1301 56.2006 88.1301C56.408 88.1301 56.5778 87.5239 56.5778 86.783C56.5778 85.9372 56.7886 85.3538 57.1435 85.2161C57.4958 85.0791 57.7093 84.4977 57.7093 83.6748C57.7093 82.9476 57.9639 82.0953 58.2751 81.7806C58.5863 81.4658 58.8409 80.7055 58.8409 80.0912C58.8409 79.4766 59.0106 78.9737 59.2181 78.9737C59.4255 78.9737 59.5952 78.4709 59.5952 77.8563C59.5952 77.2421 59.8498 76.4817 60.161 76.1669C60.4722 75.8522 60.7268 74.9816 60.7268 74.2319C60.7268 73.4826 60.8946 72.8695 61.0995 72.8695C61.3046 72.8695 61.5807 72.1828 61.7135 71.3434C61.8463 70.5041 62.1028 69.8174 62.2838 69.8174C62.4649 69.8174 62.6127 69.5599 62.6127 69.2451C62.6127 68.9304 62.8673 68.6728 63.1785 68.6728C63.4897 68.6728 63.7443 68.8567 63.7443 69.0814C63.7443 69.3065 63.9989 69.7479 64.3101 70.0627C64.6427 70.3992 64.8758 71.3312 64.8758 72.3243C64.8758 73.2537 65.0237 74.014 65.2047 74.014C65.3858 74.014 65.6423 74.7008 65.775 75.5401C65.9078 76.3794 66.1839 77.0662 66.3891 77.0662C66.5939 77.0662 66.7618 77.569 66.7618 78.1836C66.7618 78.7979 67.0164 79.5582 67.3275 79.873C67.6387 80.1877 67.8933 81.0584 67.8933 81.808C67.8933 82.5573 68.0612 83.1704 68.266 83.1704C68.4712 83.1704 68.7473 83.8571 68.88 84.6965C69.0128 85.5358 69.2693 86.2225 69.4503 86.2225C69.6314 86.2225 69.7792 86.9093 69.7792 87.7486C69.7792 88.8508 69.9365 89.2747 70.345 89.2747C70.7535 89.2747 70.9108 89.6985 70.9108 90.8007C70.9108 91.6401 71.0786 92.3268 71.2835 92.3268C71.4886 92.3268 71.7647 93.0135 71.8975 93.8529C72.0303 94.6922 72.2868 95.3789 72.4678 95.3789C72.6489 95.3789 72.7967 96.071 72.7967 96.9168C72.7967 97.932 72.9891 98.5295 73.3625 98.6745C73.7065 98.808 73.9283 99.3856 73.9283 100.148C73.9283 100.91 74.1501 101.488 74.4941 101.621C74.8675 101.766 75.0598 102.364 75.0598 103.379C75.0598 104.225 75.2296 104.917 75.437 104.917C75.6445 104.917 75.8142 105.334 75.8142 105.844C75.8142 106.353 76.0688 107.027 76.38 107.342C76.6976 107.663 76.9458 108.596 76.9458 109.468C76.9458 110.594 77.1011 111.021 77.5115 111.021C77.9068 111.021 78.0773 111.424 78.0773 112.356C78.0773 113.091 78.2248 113.692 78.4047 113.692C78.585 113.692 78.8287 114.418 78.9463 115.305C79.064 116.192 79.3409 116.979 79.5615 117.054C79.7826 117.128 79.9632 117.518 79.9632 117.92C79.9632 118.322 80.3027 118.995 80.7176 119.414C81.4373 120.142 81.9748 120.177 92.4103 120.177C101.882 120.177 103.349 120.101 103.349 119.605C103.349 119.29 103.603 119.033 103.914 119.033C104.359 119.033 104.48 118.503 104.48 116.553C104.48 115.189 104.64 114.073 104.834 114.073C105.029 114.073 105.306 112.871 105.449 111.403C105.592 109.934 105.838 108.732 105.997 108.732C106.155 108.732 106.35 107.414 106.43 105.803C106.522 103.951 106.746 102.818 107.037 102.72C107.348 102.615 107.498 101.584 107.498 99.5439C107.498 97.8828 107.648 96.5235 107.832 96.5235C108.015 96.5235 108.282 95.5792 108.424 94.4251C108.567 93.2711 108.841 92.3268 109.034 92.3268C109.226 92.3268 109.384 90.9862 109.384 89.3475C109.384 87.3186 109.56 86.1321 109.937 85.6278C110.281 85.168 110.496 83.9956 110.503 82.5344C110.511 81.0301 110.681 80.1259 110.976 80.0264C111.267 79.9283 111.491 78.7948 111.583 76.9426C111.663 75.3318 111.88 74.014 112.065 74.014C112.25 74.014 112.401 72.8928 112.401 71.5224C112.401 69.659 112.544 68.975 112.967 68.8109C113.398 68.6435 113.533 67.9292 113.533 65.8023C113.533 64.0855 113.695 62.9589 113.954 62.8715C114.188 62.7929 114.464 61.4988 114.571 59.9785C114.678 58.4654 114.888 57.2274 115.037 57.2274C115.187 57.2274 115.412 55.9848 115.538 54.4663C115.664 52.9475 115.943 51.6458 116.159 51.5729C116.378 51.4989 116.55 50.2971 116.55 48.834C116.55 47.1199 116.708 46.1737 117.011 46.0715C117.302 45.9734 117.526 44.8399 117.618 42.9877C117.698 41.3769 117.896 40.0592 118.056 40.0592C118.217 40.0592 118.421 38.9112 118.509 37.5083C118.604 36.0055 118.854 34.895 119.118 34.8057C119.411 34.7072 119.568 33.6833 119.568 31.8657C119.568 29.7388 119.702 29.0246 120.133 28.8571C120.556 28.693 120.699 28.009 120.699 26.1457C120.699 24.7752 120.851 23.654 121.037 23.654C121.223 23.654 121.495 22.2805 121.642 20.6018C121.789 18.9232 122.061 17.5497 122.247 17.5497C122.433 17.5497 122.59 16.4769 122.597 15.1652C122.605 13.6762 122.817 12.5026 123.163 12.0403C123.522 11.5595 123.717 10.3994 123.717 8.73366C123.717 7.26597 123.888 6.11036 124.117 6.03291C124.336 5.95889 124.616 4.57132 124.737 2.94912L124.957 0H114.153H103.349V1.11288Z" fill="#63A1BC"/>
<path d="M104.098 133V113.529L106.729 116.068H100.074V111.332H110.227V133H104.098ZM116.767 133L125.218 113.591L126.858 116.192H115.869L118.377 113.375V119.535H113.145V111.332H131.099V115.17L123.453 133H116.767Z" fill="#050505"/>
<mask id="mask0_1_38" style="mask-type:luminance" maskUnits="userSpaceOnUse" x="92" y="92" width="50" height="49">
<path d="M142 92H92V141H142V92Z" fill="white"/>
<path d="M104.098 133V113.529L106.729 116.068H100.074V111.332H110.227V133H104.098ZM116.767 133L125.218 113.591L126.858 116.192H115.869L118.377 113.375V119.535H113.145V111.332H131.099V115.17L123.453 133H116.767Z" fill="black"/>
</mask>
<g mask="url(#mask0_1_38)">
<path d="M104.098 133H96.1318V140.966H104.098V133ZM104.098 113.529L109.629 107.796L96.1318 94.7753V113.529H104.098ZM106.729 116.068V124.034H126.461L112.26 110.334L106.729 116.068ZM100.074 116.068H92.1077V124.034H100.074V116.068ZM100.074 111.332V103.365H92.1077V111.332H100.074ZM110.227 111.332H118.193V103.365H110.227V111.332ZM110.227 133V140.966H118.193V133H110.227ZM112.064 133V113.529H96.1318V133H112.064ZM98.5672 119.263L101.198 121.801L112.26 110.334L109.629 107.796L98.5672 119.263ZM106.729 108.101H100.074V124.034H106.729V108.101ZM108.04 116.068V111.332H92.1077V116.068H108.04ZM100.074 119.298H110.227V103.365H100.074V119.298ZM102.261 111.332V133H118.193V111.332H102.261ZM110.227 125.034H104.098V140.966H110.227V125.034ZM116.767 133L109.463 129.82L104.61 140.966H116.767V133ZM125.218 113.591L131.955 109.34L123.923 96.61L117.914 110.411L125.218 113.591ZM126.858 116.192V124.158H141.304L133.596 111.941L126.858 116.192ZM115.869 116.192L109.919 110.895L98.1135 124.158H115.869V116.192ZM118.377 113.375H126.343V92.4432L112.426 108.078L118.377 113.375ZM118.377 119.535V127.501H126.343V119.535H118.377ZM113.145 119.535H105.179V127.501H113.145V119.535ZM113.145 111.332V103.365H105.179V111.332H113.145ZM131.099 111.332H139.065V103.365H131.099V111.332ZM131.099 115.17L138.421 118.31L139.065 116.806V115.17H131.099ZM123.453 133V140.966H128.705L130.775 136.14L123.453 133ZM124.071 136.18L132.522 116.772L117.914 110.411L109.463 129.82L124.071 136.18ZM118.48 117.842L120.121 120.442L133.596 111.941L131.955 109.34L118.48 117.842ZM126.858 108.225H115.869V124.158H126.858V108.225ZM121.82 121.488L124.327 118.671L112.426 108.078L109.919 110.895L121.82 121.488ZM110.41 113.375V119.535H126.343V113.375H110.41ZM118.377 111.568H113.145V127.501H118.377V111.568ZM121.112 119.535V111.332H105.179V119.535H121.112ZM113.145 119.298H131.099V103.365H113.145V119.298ZM123.133 111.332V115.17H139.065V111.332H123.133ZM123.778 112.03L116.132 129.86L130.775 136.14L138.421 118.31L123.778 112.03ZM123.453 125.034H116.767V140.966H123.453V125.034Z" fill="white"/>
</g>
</g>
<defs>
<clipPath id="clip0_1_38">
<rect width="137" height="138" fill="white"/>
</clipPath>
</defs>
</svg>
