<svg width="137" height="138" viewBox="0 0 137 138" fill="none" xmlns="http://www.w3.org/2000/svg">
<g clip-path="url(#clip0_1_46)">
<path fill-rule="evenodd" clip-rule="evenodd" d="M0 2.67061C0 4.13945 0.149366 5.34122 0.331923 5.34122C0.514481 5.34122 0.73966 6.4045 0.832825 7.70395C0.927498 9.0301 1.19568 10.1319 1.44386 10.2155C1.7211 10.3089 1.88593 11.2864 1.88593 12.8399C1.88593 14.5316 2.06509 15.4964 2.4517 15.8875C2.81569 16.2556 3.01748 17.1983 3.01748 18.5306C3.01748 19.6698 3.1627 20.6018 3.34035 20.6018C3.51763 20.6018 3.76204 21.9291 3.8835 23.551C4.00457 25.1732 4.28369 26.5607 4.50359 26.6348C4.72349 26.7092 4.90341 27.5927 4.90341 28.5988C4.90341 29.6049 5.15801 31.0443 5.46918 31.7978C5.78036 32.5509 6.03496 34.0312 6.03496 35.0872C6.03496 36.1433 6.18508 37.007 6.36839 37.007C6.55133 37.007 6.81951 38.123 6.96397 39.4869C7.10843 40.8508 7.38264 41.9667 7.57388 41.9667C7.76473 41.9667 7.92089 43.1685 7.92089 44.6373C7.92089 46.757 8.03781 47.3079 8.48666 47.3079C8.93514 47.3079 9.05244 47.8554 9.05244 49.9469C9.05244 51.3982 9.22067 52.6427 9.42586 52.7129C9.63142 52.7827 9.91016 53.9131 10.0456 55.2244C10.1806 56.5361 10.4371 57.6089 10.6147 57.6089C10.7928 57.6089 10.9384 58.7126 10.9384 60.0616C10.9384 61.7331 11.1187 62.6964 11.5041 63.0863C11.8908 63.4773 12.0699 64.4422 12.0699 66.1338C12.0699 67.6874 12.2348 68.6648 12.512 68.7583C12.7602 68.8418 13.0283 69.9437 13.123 71.2698C13.2162 72.5693 13.4331 73.6325 13.6051 73.6325C13.7774 73.6325 13.969 74.6199 14.0313 75.8262C14.1373 77.8815 14.204 78.02 15.0874 78.02C15.8357 78.02 16.0549 77.8033 16.1496 76.9708C16.2152 76.3939 16.4275 75.9216 16.621 75.9216C16.8149 75.9216 16.9733 75.4924 16.9733 74.9678C16.9733 74.3742 17.1872 74.014 17.5391 74.014C17.9476 74.014 18.1049 73.5902 18.1049 72.488C18.1049 71.3858 18.2622 70.9619 18.6707 70.9619C19.0478 70.9619 19.2364 70.5804 19.2364 69.8174C19.2364 69.1879 19.3877 68.6728 19.5729 68.6728C19.7577 68.6728 20.0157 68.2436 20.1458 67.719C20.276 67.1945 20.549 66.7653 20.7523 66.7653C20.956 66.7653 21.1224 66.0785 21.1224 65.2392C21.1224 64.137 21.2797 63.7131 21.6881 63.7131C22.0401 63.7131 22.2539 63.353 22.2539 62.7593C22.2539 62.2348 22.4101 61.8055 22.6013 61.8055C22.7922 61.8055 23.0603 61.2905 23.1969 60.661C23.3334 60.0315 23.6016 59.5164 23.7925 59.5164C23.9837 59.5164 24.1398 59.0819 24.1398 58.5508C24.1398 58.0194 24.3944 57.486 24.7056 57.3655C25.0496 57.2319 25.2714 56.6543 25.2714 55.892C25.2714 55.1298 25.4932 54.5522 25.8372 54.4186C26.1484 54.2981 26.403 53.8506 26.403 53.424C26.403 52.9979 26.5727 52.6492 26.7801 52.6492C26.9876 52.6492 27.1573 52.1341 27.1573 51.5046C27.1573 50.7416 27.3459 50.3601 27.7231 50.3601C28.1297 50.3601 28.2889 49.9396 28.2889 48.8657C28.2889 48.0096 28.4903 47.3038 28.7604 47.2126C29.0802 47.1046 29.2318 46.155 29.2318 44.2558C29.2318 42.3566 29.0802 41.407 28.7604 41.2991C28.4447 41.1926 28.2889 40.2797 28.2889 38.5331C28.2889 36.8189 28.1312 35.8728 27.828 35.7705C27.5368 35.6725 27.3135 34.539 27.2211 32.6867C27.1407 31.076 26.9435 29.7582 26.7828 29.7582C26.6221 29.7582 26.4184 28.6102 26.3302 27.2074C26.2355 25.7046 25.985 24.594 25.7206 24.5048C25.4264 24.4056 25.2714 23.3671 25.2714 21.4965C25.2714 19.4657 25.1077 18.4741 24.7056 18.0674C24.3201 17.6775 24.1398 16.7142 24.1398 15.0428C24.1398 13.6937 23.9901 12.59 23.8068 12.59C23.6239 12.59 23.3549 11.3024 23.209 9.72865C23.0634 8.1549 22.7888 6.86728 22.599 6.86728C22.4093 6.86728 22.2539 5.76356 22.2539 4.41452C22.2539 2.7431 22.0736 1.77977 21.6881 1.38986C21.377 1.07511 21.1224 0.633698 21.1224 0.408603C21.1224 0.127808 17.8197 0 10.5612 0H0V2.67061ZM103.349 1.11288C103.349 1.72483 103.162 2.28833 102.935 2.36502C102.699 2.44437 102.433 3.93495 102.316 5.83032C102.203 7.65969 101.965 9.15638 101.787 9.15638C101.609 9.15638 101.463 10.3459 101.463 11.7999C101.463 13.6407 101.291 14.6166 100.897 15.0153C100.478 15.4392 100.331 16.4773 100.331 19.0167C100.331 21.3786 100.188 22.4942 99.8703 22.6014C99.5791 22.6994 99.3558 23.8329 99.2634 25.6852C99.1831 27.2959 98.9896 28.6137 98.8334 28.6137C98.6776 28.6137 98.4608 30.1951 98.3518 32.1282C98.2348 34.2014 97.9814 35.7011 97.7336 35.7846C97.4846 35.8686 97.3137 36.9025 97.3137 38.3274C97.3137 39.6483 97.0591 41.3452 96.748 42.0987C96.4149 42.9049 96.1822 44.6507 96.1822 46.342C96.1822 47.9226 96.0275 49.2155 95.839 49.2155C95.65 49.2155 95.3754 50.6748 95.2283 52.4584C95.0816 54.242 94.8119 55.7013 94.6289 55.7013C94.446 55.7013 94.2963 56.9706 94.2963 58.5218C94.2963 60.677 94.1627 61.3943 93.7305 61.5621C93.2854 61.7346 93.1647 62.5163 93.1647 65.2274C93.1647 67.1223 93.0127 68.6728 92.8268 68.6728C92.6408 68.6728 92.3685 70.0463 92.2218 71.725C92.075 73.4036 91.8102 74.7771 91.6341 74.7771C91.4576 74.7771 91.2629 75.9357 91.2018 77.3523C91.0936 79.8459 91.0574 79.9314 90.0529 80.0481C89.3121 80.1343 89.0157 79.9981 89.0157 79.5712C89.0157 79.2427 88.8459 78.9737 88.6385 78.9737C88.431 78.9737 88.2613 78.287 88.2613 77.4477C88.2613 76.3455 88.104 75.9216 87.6955 75.9216C87.2984 75.9216 87.1297 75.5161 87.1297 74.5592C87.1297 73.8095 86.8752 72.9389 86.564 72.6242C86.2528 72.3094 85.9982 71.5491 85.9982 70.9348C85.9982 70.3202 85.8503 69.8174 85.6693 69.8174C85.4882 69.8174 85.2318 69.1306 85.099 68.2913C84.9662 67.452 84.6901 66.7653 84.4849 66.7653C84.2801 66.7653 84.1123 66.0785 84.1123 65.2392C84.1123 64.137 83.955 63.7131 83.5465 63.7131C83.1693 63.7131 82.9807 63.3316 82.9807 62.5686C82.9807 61.9391 82.8329 61.424 82.6518 61.424C82.4708 61.424 82.2143 60.7373 82.0815 59.898C81.9487 59.0586 81.6726 58.3719 81.4674 58.3719C81.2626 58.3719 81.0948 57.6852 81.0948 56.8458C81.0948 55.7436 80.9375 55.3198 80.529 55.3198C80.1337 55.3198 79.9632 54.9169 79.9632 53.9845C79.9632 53.2501 79.8086 52.6492 79.6192 52.6492C79.4299 52.6492 79.1606 51.9624 79.0203 51.1231C78.88 50.2838 78.6107 49.597 78.4213 49.597C78.232 49.597 78.0773 49.082 78.0773 48.4525C78.0773 47.6895 77.8887 47.3079 77.5115 47.3079C77.0925 47.3079 76.9458 46.8627 76.9458 45.5911C76.9458 44.6469 76.7794 43.8743 76.5757 43.8743C76.3724 43.8743 76.0993 43.4451 75.9692 42.9205C75.8391 42.3959 75.5811 41.9667 75.3963 41.9667C75.2111 41.9667 75.0598 41.5375 75.0598 41.0129C75.0598 40.2614 74.8686 40.0592 74.1572 40.0592C73.6608 40.0592 73.1569 39.8016 73.0374 39.4869C72.7103 38.6243 51.6744 38.6243 51.6744 39.4869C51.6744 39.8016 51.4198 40.0592 51.1086 40.0592C50.7974 40.0592 50.5428 40.3167 50.5428 40.6314C50.5428 40.9462 50.3889 41.2037 50.2011 41.2037C50.0129 41.2037 49.7424 42.0621 49.5998 43.1113C49.4573 44.1604 49.1868 45.0189 48.9986 45.0189C48.8108 45.0189 48.6569 45.5339 48.6569 46.1634C48.6569 46.9264 48.4683 47.3079 48.0911 47.3079C47.6939 47.3079 47.5253 47.7135 47.5253 48.6703C47.5253 49.42 47.2707 50.2906 46.9595 50.6054C46.6484 50.9201 46.3938 51.6805 46.3938 52.2947C46.3938 52.9094 46.2459 53.4122 46.0649 53.4122C45.8838 53.4122 45.6273 54.0989 45.4945 54.9383C45.3618 55.7776 45.0857 56.4643 44.8805 56.4643C44.6757 56.4643 44.5078 57.1511 44.5078 57.9904C44.5078 59.0926 44.3506 59.5164 43.9421 59.5164C43.5649 59.5164 43.3763 59.898 43.3763 60.661C43.3763 61.2905 43.2284 61.8055 43.0474 61.8055C42.8663 61.8055 42.6098 62.4923 42.4771 63.3316C42.3443 64.1709 42.0682 64.8577 41.863 64.8577C41.6582 64.8577 41.4904 65.4403 41.4904 66.1522C41.4904 66.9511 41.2739 67.5306 40.9246 67.6664C40.5696 67.8041 40.3588 68.3874 40.3588 69.2333C40.3588 69.9742 40.1891 70.5804 39.9816 70.5804C39.7742 70.5804 39.6044 71.0955 39.6044 71.725C39.6044 72.488 39.4158 72.8695 39.0387 72.8695C38.6415 72.8695 38.4729 73.2751 38.4729 74.2319C38.4729 74.9816 38.2183 75.8522 37.9071 76.1669C37.5959 76.4817 37.3413 77.2421 37.3413 77.8563C37.3413 78.4709 37.1735 78.9737 36.9687 78.9737C36.7635 78.9737 36.4874 79.6605 36.3546 80.4998C36.2218 81.3391 35.9653 82.0259 35.7843 82.0259C35.6033 82.0259 35.4554 82.4673 35.4554 83.0068C35.4554 83.5466 35.2008 84.2455 34.8896 84.5603C34.5784 84.875 34.3238 85.6354 34.3238 86.2496C34.3238 86.8643 34.156 87.3671 33.9512 87.3671C33.746 87.3671 33.4699 88.0538 33.3371 88.8932C33.2044 89.7325 32.9479 90.4192 32.7668 90.4192C32.5858 90.4192 32.4379 90.8362 32.4379 91.3459C32.4379 91.8552 32.1833 92.5298 31.8721 92.8445C31.561 93.1593 31.3064 93.8704 31.3064 94.4251C31.3064 94.9799 31.0518 95.691 30.7406 96.0058C30.4294 96.3205 30.1748 96.995 30.1748 97.5044C30.1748 98.0141 30.0051 98.431 29.7976 98.431C29.5902 98.431 29.4204 98.9339 29.4204 99.5485C29.4204 100.163 29.1658 100.923 28.8547 101.238C28.5435 101.553 28.2889 102.423 28.2889 103.173C28.2889 104.13 28.1203 104.535 27.7231 104.535C27.3459 104.535 27.1573 104.917 27.1573 105.68C27.1573 106.309 27.0095 106.824 26.8284 106.824C26.6474 106.824 26.3909 107.511 26.2581 108.35C26.1253 109.19 25.8492 109.877 25.6441 109.877C25.4392 109.877 25.2714 110.483 25.2714 111.224C25.2714 112.069 25.0606 112.653 24.7056 112.791C24.3884 112.914 24.1398 113.481 24.1398 114.082C24.1398 114.672 23.9852 115.211 23.7966 115.281C23.6076 115.351 23.3379 116.196 23.1969 117.159C22.7492 120.221 22.5851 120.177 34.6441 120.177C44.6478 120.177 45.1223 120.145 45.7443 119.41C46.1014 118.988 46.3938 118.228 46.3938 117.72C46.3938 117.213 46.6484 116.541 46.9595 116.226C47.2707 115.911 47.5253 115.114 47.5253 114.455C47.5253 113.795 47.7799 112.998 48.0911 112.683C48.4023 112.369 48.6569 111.608 48.6569 110.994C48.6569 110.379 48.8047 109.877 48.9858 109.877C49.1668 109.877 49.4233 109.19 49.5561 108.35C49.6889 107.511 49.965 106.824 50.1701 106.824C50.375 106.824 50.5428 106.156 50.5428 105.339C50.5428 104.371 50.7397 103.778 51.1086 103.634C51.4601 103.498 51.6744 102.917 51.6744 102.099C51.6744 101.376 51.855 100.723 52.0761 100.648C52.2967 100.574 52.5736 99.787 52.6913 98.8996C52.8089 98.0125 53.0526 97.2865 53.2329 97.2865C53.4128 97.2865 53.5656 96.7287 53.5723 96.0466C53.5788 95.3644 53.8334 94.4732 54.1381 94.0661C54.4425 93.6587 54.6918 92.917 54.6918 92.4172C54.6918 91.9178 54.9464 91.2517 55.2576 90.9369C55.5688 90.6222 55.8234 89.8618 55.8234 89.2476C55.8234 88.633 55.9931 88.1301 56.2006 88.1301C56.408 88.1301 56.5778 87.5239 56.5778 86.783C56.5778 85.9372 56.7886 85.3538 57.1435 85.2161C57.4958 85.0791 57.7093 84.4977 57.7093 83.6748C57.7093 82.9476 57.9639 82.0953 58.2751 81.7806C58.5863 81.4658 58.8409 80.7055 58.8409 80.0912C58.8409 79.4766 59.0106 78.9737 59.2181 78.9737C59.4255 78.9737 59.5952 78.4709 59.5952 77.8563C59.5952 77.2421 59.8498 76.4817 60.161 76.1669C60.4722 75.8522 60.7268 74.9816 60.7268 74.2319C60.7268 73.4826 60.8946 72.8695 61.0995 72.8695C61.3046 72.8695 61.5807 72.1828 61.7135 71.3434C61.8463 70.5041 62.1028 69.8174 62.2838 69.8174C62.4649 69.8174 62.6127 69.5599 62.6127 69.2451C62.6127 68.9304 62.8673 68.6728 63.1785 68.6728C63.4897 68.6728 63.7443 68.8567 63.7443 69.0814C63.7443 69.3065 63.9989 69.7479 64.3101 70.0627C64.6427 70.3992 64.8758 71.3312 64.8758 72.3243C64.8758 73.2537 65.0237 74.014 65.2047 74.014C65.3858 74.014 65.6423 74.7008 65.775 75.5401C65.9078 76.3794 66.1839 77.0662 66.3891 77.0662C66.5939 77.0662 66.7618 77.569 66.7618 78.1836C66.7618 78.7979 67.0164 79.5582 67.3275 79.873C67.6387 80.1877 67.8933 81.0584 67.8933 81.808C67.8933 82.5573 68.0612 83.1704 68.266 83.1704C68.4712 83.1704 68.7473 83.8571 68.88 84.6965C69.0128 85.5358 69.2693 86.2225 69.4503 86.2225C69.6314 86.2225 69.7792 86.9093 69.7792 87.7486C69.7792 88.8508 69.9365 89.2747 70.345 89.2747C70.7535 89.2747 70.9108 89.6985 70.9108 90.8007C70.9108 91.6401 71.0786 92.3268 71.2835 92.3268C71.4886 92.3268 71.7647 93.0135 71.8975 93.8529C72.0303 94.6922 72.2868 95.3789 72.4678 95.3789C72.6489 95.3789 72.7967 96.071 72.7967 96.9168C72.7967 97.932 72.9891 98.5295 73.3625 98.6745C73.7065 98.808 73.9283 99.3856 73.9283 100.148C73.9283 100.91 74.1501 101.488 74.4941 101.621C74.8675 101.766 75.0598 102.364 75.0598 103.379C75.0598 104.225 75.2296 104.917 75.437 104.917C75.6445 104.917 75.8142 105.334 75.8142 105.844C75.8142 106.353 76.0688 107.027 76.38 107.342C76.6976 107.663 76.9458 108.596 76.9458 109.468C76.9458 110.594 77.1011 111.021 77.5115 111.021C77.9068 111.021 78.0773 111.424 78.0773 112.356C78.0773 113.091 78.2248 113.692 78.4047 113.692C78.585 113.692 78.8287 114.418 78.9463 115.305C79.064 116.192 79.3409 116.979 79.5615 117.054C79.7826 117.128 79.9632 117.518 79.9632 117.92C79.9632 118.322 80.3027 118.995 80.7176 119.414C81.4373 120.142 81.9748 120.177 92.4103 120.177C101.882 120.177 103.349 120.101 103.349 119.605C103.349 119.29 103.603 119.033 103.914 119.033C104.359 119.033 104.48 118.503 104.48 116.553C104.48 115.189 104.64 114.073 104.834 114.073C105.029 114.073 105.306 112.871 105.449 111.403C105.592 109.934 105.838 108.732 105.997 108.732C106.155 108.732 106.35 107.414 106.43 105.803C106.522 103.951 106.746 102.818 107.037 102.72C107.348 102.615 107.498 101.584 107.498 99.5439C107.498 97.8828 107.648 96.5235 107.832 96.5235C108.015 96.5235 108.282 95.5792 108.424 94.4251C108.567 93.2711 108.841 92.3268 109.034 92.3268C109.226 92.3268 109.384 90.9862 109.384 89.3475C109.384 87.3186 109.56 86.1321 109.937 85.6278C110.281 85.168 110.496 83.9956 110.503 82.5344C110.511 81.0301 110.681 80.1259 110.976 80.0264C111.267 79.9283 111.491 78.7948 111.583 76.9426C111.663 75.3318 111.88 74.014 112.065 74.014C112.25 74.014 112.401 72.8928 112.401 71.5224C112.401 69.659 112.544 68.975 112.967 68.8109C113.398 68.6435 113.533 67.9292 113.533 65.8023C113.533 64.0855 113.695 62.9589 113.954 62.8715C114.188 62.7929 114.464 61.4988 114.571 59.9785C114.678 58.4654 114.888 57.2274 115.037 57.2274C115.187 57.2274 115.412 55.9848 115.538 54.4663C115.664 52.9475 115.943 51.6458 116.159 51.5729C116.378 51.4989 116.55 50.2971 116.55 48.834C116.55 47.1199 116.708 46.1737 117.011 46.0715C117.302 45.9734 117.526 44.8399 117.618 42.9877C117.698 41.3769 117.896 40.0592 118.056 40.0592C118.217 40.0592 118.421 38.9112 118.509 37.5083C118.604 36.0055 118.854 34.895 119.118 34.8057C119.411 34.7072 119.568 33.6833 119.568 31.8657C119.568 29.7388 119.702 29.0246 120.133 28.8571C120.556 28.693 120.699 28.009 120.699 26.1457C120.699 24.7752 120.851 23.654 121.037 23.654C121.223 23.654 121.495 22.2805 121.642 20.6018C121.789 18.9232 122.061 17.5497 122.247 17.5497C122.433 17.5497 122.59 16.4769 122.597 15.1652C122.605 13.6762 122.817 12.5026 123.163 12.0403C123.522 11.5595 123.717 10.3994 123.717 8.73366C123.717 7.26597 123.888 6.11036 124.117 6.03291C124.336 5.95889 124.616 4.57132 124.737 2.94912L124.957 0H114.153H103.349V1.11288Z" fill="#78B595"/>
<path d="M103.826 133V113.529L106.457 116.068H99.8019V111.332H109.955V133H103.826ZM121.138 110.898C123.181 110.898 124.946 111.301 126.432 112.106C127.938 112.91 129.104 114.107 129.929 115.696C130.776 117.265 131.199 119.225 131.199 121.578C131.199 124.095 130.703 126.242 129.713 128.016C128.743 129.77 127.391 131.112 125.658 132.04C123.945 132.969 121.943 133.433 119.652 133.433C118.455 133.433 117.3 133.289 116.185 133C115.071 132.732 114.112 132.35 113.307 131.855L115.535 127.459C116.155 127.892 116.794 128.192 117.455 128.357C118.136 128.501 118.827 128.573 119.529 128.573C121.2 128.573 122.531 128.068 123.522 127.057C124.512 126.045 125.008 124.57 125.008 122.63C125.008 122.279 125.008 121.918 125.008 121.547C125.008 121.155 124.977 120.763 124.915 120.37L126.432 121.64C126.06 122.403 125.575 123.043 124.977 123.559C124.378 124.075 123.677 124.467 122.872 124.735C122.067 125.003 121.149 125.137 120.117 125.137C118.755 125.137 117.506 124.859 116.371 124.302C115.257 123.724 114.359 122.929 113.678 121.918C112.997 120.886 112.657 119.679 112.657 118.296C112.657 116.79 113.038 115.49 113.802 114.396C114.566 113.282 115.587 112.425 116.866 111.827C118.146 111.208 119.57 110.898 121.138 110.898ZM121.541 115.263C120.963 115.263 120.457 115.376 120.024 115.603C119.591 115.83 119.24 116.15 118.971 116.563C118.724 116.955 118.6 117.44 118.6 118.018C118.6 118.843 118.868 119.504 119.405 119.999C119.962 120.494 120.684 120.742 121.572 120.742C122.17 120.742 122.696 120.628 123.15 120.401C123.604 120.174 123.955 119.855 124.203 119.442C124.45 119.029 124.574 118.544 124.574 117.987C124.574 117.45 124.45 116.986 124.203 116.594C123.955 116.181 123.604 115.861 123.15 115.634C122.696 115.387 122.16 115.263 121.541 115.263Z" fill="#050505"/>
<mask id="mask0_1_46" style="mask-type:luminance" maskUnits="userSpaceOnUse" x="91" y="94" width="49" height="48">
<path d="M140 94H91V142H140V94Z" fill="white"/>
<path d="M103.826 133V113.529L106.457 116.068H99.8019V111.332H109.955V133H103.826ZM121.138 110.898C123.181 110.898 124.946 111.301 126.432 112.106C127.938 112.91 129.104 114.107 129.929 115.696C130.776 117.265 131.199 119.225 131.199 121.578C131.199 124.095 130.703 126.242 129.713 128.016C128.743 129.77 127.391 131.112 125.658 132.04C123.945 132.969 121.943 133.433 119.652 133.433C118.455 133.433 117.3 133.289 116.185 133C115.071 132.732 114.112 132.35 113.307 131.855L115.535 127.459C116.155 127.892 116.794 128.192 117.455 128.357C118.136 128.501 118.827 128.573 119.529 128.573C121.2 128.573 122.531 128.068 123.522 127.057C124.512 126.045 125.008 124.57 125.008 122.63C125.008 122.279 125.008 121.918 125.008 121.547C125.008 121.155 124.977 120.763 124.915 120.37L126.432 121.64C126.06 122.403 125.575 123.043 124.977 123.559C124.378 124.075 123.677 124.467 122.872 124.735C122.067 125.003 121.149 125.137 120.117 125.137C118.755 125.137 117.506 124.859 116.371 124.302C115.257 123.724 114.359 122.929 113.678 121.918C112.997 120.886 112.657 119.679 112.657 118.296C112.657 116.79 113.038 115.49 113.802 114.396C114.566 113.282 115.587 112.425 116.866 111.827C118.146 111.208 119.57 110.898 121.138 110.898ZM121.541 115.263C120.963 115.263 120.457 115.376 120.024 115.603C119.591 115.83 119.24 116.15 118.971 116.563C118.724 116.955 118.6 117.44 118.6 118.018C118.6 118.843 118.868 119.504 119.405 119.999C119.962 120.494 120.684 120.742 121.572 120.742C122.17 120.742 122.696 120.628 123.15 120.401C123.604 120.174 123.955 119.855 124.203 119.442C124.45 119.029 124.574 118.544 124.574 117.987C124.574 117.45 124.45 116.986 124.203 116.594C123.955 116.181 123.604 115.861 123.15 115.634C122.696 115.387 122.16 115.263 121.541 115.263Z" fill="black"/>
</mask>
<g mask="url(#mask0_1_46)">
<path d="M103.826 133H95.8597V140.966H103.826V133ZM103.826 113.529L109.357 107.796L95.8597 94.7753V113.529H103.826ZM106.457 116.068V124.034H126.189L111.988 110.334L106.457 116.068ZM99.8019 116.068H91.8356V124.034H99.8019V116.068ZM99.8019 111.332V103.365H91.8356V111.332H99.8019ZM109.955 111.332H117.921V103.365H109.955V111.332ZM109.955 133V140.966H117.921V133H109.955ZM111.792 133V113.529H95.8597V133H111.792ZM98.2951 119.263L100.926 121.801L111.988 110.334L109.357 107.796L98.2951 119.263ZM106.457 108.101H99.8019V124.034H106.457V108.101ZM107.768 116.068V111.332H91.8356V116.068H107.768ZM99.8019 119.298H109.955V103.365H99.8019V119.298ZM101.989 111.332V133H117.921V111.332H101.989ZM109.955 125.034H103.826V140.966H109.955V125.034ZM126.432 112.106L122.637 119.11L122.657 119.121L122.678 119.132L126.432 112.106ZM129.929 115.696L122.86 119.369L122.889 119.424L122.918 119.479L129.929 115.696ZM129.713 128.016L122.757 124.134L122.749 124.148L122.741 124.161L129.713 128.016ZM125.658 132.04L121.896 125.018L121.878 125.028L121.861 125.037L125.658 132.04ZM116.185 133L118.185 125.289L118.118 125.271L118.05 125.255L116.185 133ZM113.307 131.855L106.202 128.252L102.884 134.795L109.132 138.639L113.307 131.855ZM115.535 127.459L120.104 120.933L112.582 115.668L108.43 123.856L115.535 127.459ZM117.455 128.357L115.523 136.085L115.661 136.12L115.802 136.15L117.455 128.357ZM124.915 120.37L130.027 114.261L113.732 100.627L117.046 121.613L124.915 120.37ZM126.432 121.64L133.595 125.125L136.319 119.526L131.544 115.53L126.432 121.64ZM116.371 124.302L112.704 131.374L112.782 131.414L112.861 131.453L116.371 124.302ZM113.678 121.918L107.029 126.306L107.05 126.337L107.071 126.368L113.678 121.918ZM113.802 114.396L120.334 118.956L120.354 118.928L120.374 118.899L113.802 114.396ZM116.866 111.827L120.242 119.043L120.289 119.021L120.336 118.998L116.866 111.827ZM118.971 116.563L112.292 112.221L112.264 112.265L112.236 112.309L118.971 116.563ZM119.405 119.999L114.001 125.853L114.056 125.903L114.112 125.953L119.405 119.999ZM124.203 116.594L117.372 120.693L117.419 120.771L117.467 120.848L124.203 116.594ZM123.15 115.634L119.336 122.628L119.46 122.696L119.588 122.76L123.15 115.634ZM121.138 118.865C122.131 118.865 122.537 119.056 122.637 119.11L130.226 105.101C127.355 103.546 124.231 102.932 121.138 102.932V118.865ZM122.678 119.132C122.706 119.147 122.719 119.156 122.722 119.159C122.725 119.161 122.726 119.162 122.73 119.166C122.731 119.167 122.781 119.217 122.86 119.369L136.999 112.024C135.47 109.081 133.181 106.68 130.185 105.079L122.678 119.132ZM122.918 119.479C122.969 119.572 123.232 120.138 123.232 121.578H139.165C139.165 118.312 138.582 114.957 136.941 111.914L122.918 119.479ZM123.232 121.578C123.232 123.057 122.944 123.797 122.757 124.134L136.669 131.899C138.462 128.686 139.165 125.134 139.165 121.578H123.232ZM122.741 124.161C122.499 124.6 122.249 124.829 121.896 125.018L129.42 139.063C132.533 137.395 134.987 134.941 136.684 131.871L122.741 124.161ZM121.861 125.037C121.503 125.231 120.85 125.467 119.652 125.467V141.4C123.036 141.4 126.387 140.707 129.455 139.044L121.861 125.037ZM119.652 125.467C119.103 125.467 118.621 125.402 118.185 125.289L114.186 140.711C115.979 141.176 117.808 141.4 119.652 141.4V125.467ZM118.05 125.255C117.584 125.143 117.438 125.043 117.482 125.07L109.132 138.639C110.785 139.656 112.558 140.321 114.321 140.745L118.05 125.255ZM120.412 135.457L122.641 131.062L108.43 123.856L106.202 128.252L120.412 135.457ZM110.967 133.985C112.296 134.916 113.819 135.659 115.523 136.085L119.387 120.628C119.77 120.724 120.013 120.869 120.104 120.933L110.967 133.985ZM115.802 136.15C117.03 136.41 118.276 136.54 119.529 136.54V120.607C119.378 120.607 119.241 120.592 119.108 120.564L115.802 136.15ZM119.529 136.54C122.923 136.54 126.454 135.447 129.213 132.631L117.831 121.482C118.148 121.159 118.546 120.901 118.952 120.747C119.332 120.603 119.563 120.607 119.529 120.607V136.54ZM129.213 132.631C132.133 129.65 132.974 125.867 132.974 122.63H117.041C117.041 122.942 116.999 122.909 117.084 122.657C117.181 122.369 117.403 121.919 117.831 121.482L129.213 132.631ZM132.974 122.63C132.974 122.629 132.974 122.629 132.974 122.628C132.974 122.627 132.974 122.627 132.974 122.626C132.974 122.625 132.974 122.625 132.974 122.624C132.974 122.623 132.974 122.623 132.974 122.622C132.974 122.621 132.974 122.621 132.974 122.62C132.974 122.619 132.974 122.618 132.974 122.618C132.974 122.617 132.974 122.616 132.974 122.616C132.974 122.615 132.974 122.614 132.974 122.614C132.974 122.613 132.974 122.612 132.974 122.612C132.974 122.611 132.974 122.61 132.974 122.61C132.974 122.609 132.974 122.608 132.974 122.608C132.974 122.607 132.974 122.606 132.974 122.605C132.974 122.605 132.974 122.604 132.974 122.603C132.974 122.603 132.974 122.602 132.974 122.601C132.974 122.601 132.974 122.6 132.974 122.599C132.974 122.599 132.974 122.598 132.974 122.597C132.974 122.597 132.974 122.596 132.974 122.595C132.974 122.594 132.974 122.594 132.974 122.593C132.974 122.592 132.974 122.592 132.974 122.591C132.974 122.59 132.974 122.59 132.974 122.589C132.974 122.588 132.974 122.588 132.974 122.587C132.974 122.586 132.974 122.586 132.974 122.585C132.974 122.584 132.974 122.583 132.974 122.583C132.974 122.582 132.974 122.581 132.974 122.581C132.974 122.58 132.974 122.579 132.974 122.579C132.974 122.578 132.974 122.577 132.974 122.577C132.974 122.576 132.974 122.575 132.974 122.575C132.974 122.574 132.974 122.573 132.974 122.572C132.974 122.572 132.974 122.571 132.974 122.57C132.974 122.57 132.974 122.569 132.974 122.568C132.974 122.568 132.974 122.567 132.974 122.566C132.974 122.566 132.974 122.565 132.974 122.564C132.974 122.564 132.974 122.563 132.974 122.562C132.974 122.561 132.974 122.561 132.974 122.56C132.974 122.559 132.974 122.559 132.974 122.558C132.974 122.557 132.974 122.557 132.974 122.556C132.974 122.555 132.974 122.555 132.974 122.554C132.974 122.553 132.974 122.553 132.974 122.552C132.974 122.551 132.974 122.55 132.974 122.55C132.974 122.549 132.974 122.548 132.974 122.548C132.974 122.547 132.974 122.546 132.974 122.546C132.974 122.545 132.974 122.544 132.974 122.544C132.974 122.543 132.974 122.542 132.974 122.542C132.974 122.541 132.974 122.54 132.974 122.539C132.974 122.539 132.974 122.538 132.974 122.537C132.974 122.537 132.974 122.536 132.974 122.535C132.974 122.535 132.974 122.534 132.974 122.533C132.974 122.533 132.974 122.532 132.974 122.531C132.974 122.531 132.974 122.53 132.974 122.529C132.974 122.528 132.974 122.528 132.974 122.527C132.974 122.526 132.974 122.526 132.974 122.525C132.974 122.524 132.974 122.524 132.974 122.523C132.974 122.522 132.974 122.522 132.974 122.521C132.974 122.52 132.974 122.519 132.974 122.519C132.974 122.518 132.974 122.517 132.974 122.517C132.974 122.516 132.974 122.515 132.974 122.515C132.974 122.514 132.974 122.513 132.974 122.513C132.974 122.512 132.974 122.511 132.974 122.511C132.974 122.51 132.974 122.509 132.974 122.508C132.974 122.508 132.974 122.507 132.974 122.506C132.974 122.506 132.974 122.505 132.974 122.504C132.974 122.504 132.974 122.503 132.974 122.502C132.974 122.502 132.974 122.501 132.974 122.5C132.974 122.499 132.974 122.499 132.974 122.498C132.974 122.497 132.974 122.497 132.974 122.496C132.974 122.495 132.974 122.495 132.974 122.494C132.974 122.493 132.974 122.493 132.974 122.492C132.974 122.491 132.974 122.491 132.974 122.49C132.974 122.489 132.974 122.488 132.974 122.488C132.974 122.487 132.974 122.486 132.974 122.486C132.974 122.485 132.974 122.484 132.974 122.484C132.974 122.483 132.974 122.482 132.974 122.482C132.974 122.481 132.974 122.48 132.974 122.479C132.974 122.479 132.974 122.478 132.974 122.477C132.974 122.477 132.974 122.476 132.974 122.475C132.974 122.475 132.974 122.474 132.974 122.473C132.974 122.473 132.974 122.472 132.974 122.471C132.974 122.47 132.974 122.47 132.974 122.469C132.974 122.468 132.974 122.468 132.974 122.467C132.974 122.466 132.974 122.466 132.974 122.465C132.974 122.464 132.974 122.464 132.974 122.463C132.974 122.462 132.974 122.461 132.974 122.461C132.974 122.46 132.974 122.459 132.974 122.459C132.974 122.458 132.974 122.457 132.974 122.457C132.974 122.456 132.974 122.455 132.974 122.455C132.974 122.454 132.974 122.453 132.974 122.452C132.974 122.452 132.974 122.451 132.974 122.45C132.974 122.45 132.974 122.449 132.974 122.448C132.974 122.448 132.974 122.447 132.974 122.446C132.974 122.446 132.974 122.445 132.974 122.444C132.974 122.443 132.974 122.443 132.974 122.442C132.974 122.441 132.974 122.441 132.974 122.44C132.974 122.439 132.974 122.439 132.974 122.438C132.974 122.437 132.974 122.437 132.974 122.436C132.974 122.435 132.974 122.434 132.974 122.434C132.974 122.433 132.974 122.432 132.974 122.432C132.974 122.431 132.974 122.43 132.974 122.43C132.974 122.429 132.974 122.428 132.974 122.428C132.974 122.427 132.974 122.426 132.974 122.425C132.974 122.425 132.974 122.424 132.974 122.423C132.974 122.423 132.974 122.422 132.974 122.421C132.974 122.421 132.974 122.42 132.974 122.419C132.974 122.419 132.974 122.418 132.974 122.417C132.974 122.416 132.974 122.416 132.974 122.415C132.974 122.414 132.974 122.414 132.974 122.413C132.974 122.412 132.974 122.412 132.974 122.411C132.974 122.41 132.974 122.41 132.974 122.409C132.974 122.408 132.974 122.407 132.974 122.407C132.974 122.406 132.974 122.405 132.974 122.405C132.974 122.404 132.974 122.403 132.974 122.403C132.974 122.402 132.974 122.401 132.974 122.401C132.974 122.4 132.974 122.399 132.974 122.398C132.974 122.398 132.974 122.397 132.974 122.396C132.974 122.396 132.974 122.395 132.974 122.394C132.974 122.394 132.974 122.393 132.974 122.392C132.974 122.391 132.974 122.391 132.974 122.39C132.974 122.389 132.974 122.389 132.974 122.388C132.974 122.387 132.974 122.387 132.974 122.386C132.974 122.385 132.974 122.385 132.974 122.384C132.974 122.383 132.974 122.382 132.974 122.382C132.974 122.381 132.974 122.38 132.974 122.38C132.974 122.379 132.974 122.378 132.974 122.378C132.974 122.377 132.974 122.376 132.974 122.376C132.974 122.375 132.974 122.374 132.974 122.373C132.974 122.373 132.974 122.372 132.974 122.371C132.974 122.371 132.974 122.37 132.974 122.369C132.974 122.369 132.974 122.368 132.974 122.367C132.974 122.366 132.974 122.366 132.974 122.365C132.974 122.364 132.974 122.364 132.974 122.363C132.974 122.362 132.974 122.362 132.974 122.361C132.974 122.36 132.974 122.36 132.974 122.359C132.974 122.358 132.974 122.357 132.974 122.357C132.974 122.356 132.974 122.355 132.974 122.355C132.974 122.354 132.974 122.353 132.974 122.353C132.974 122.352 132.974 122.351 132.974 122.35C132.974 122.35 132.974 122.349 132.974 122.348C132.974 122.348 132.974 122.347 132.974 122.346C132.974 122.346 132.974 122.345 132.974 122.344C132.974 122.344 132.974 122.343 132.974 122.342C132.974 122.341 132.974 122.341 132.974 122.34C132.974 122.339 132.974 122.339 132.974 122.338C132.974 122.337 132.974 122.337 132.974 122.336C132.974 122.335 132.974 122.334 132.974 122.334C132.974 122.333 132.974 122.332 132.974 122.332C132.974 122.331 132.974 122.33 132.974 122.33C132.974 122.329 132.974 122.328 132.974 122.328C132.974 122.327 132.974 122.326 132.974 122.325C132.974 122.325 132.974 122.324 132.974 122.323C132.974 122.323 132.974 122.322 132.974 122.321C132.974 122.321 132.974 122.32 132.974 122.319C132.974 122.318 132.974 122.318 132.974 122.317C132.974 122.316 132.974 122.316 132.974 122.315C132.974 122.314 132.974 122.314 132.974 122.313C132.974 122.312 132.974 122.311 132.974 122.311C132.974 122.31 132.974 122.309 132.974 122.309C132.974 122.308 132.974 122.307 132.974 122.307C132.974 122.306 132.974 122.305 132.974 122.305C132.974 122.304 132.974 122.303 132.974 122.302C132.974 122.302 132.974 122.301 132.974 122.3C132.974 122.3 132.974 122.299 132.974 122.298C132.974 122.298 132.974 122.297 132.974 122.296C132.974 122.295 132.974 122.295 132.974 122.294C132.974 122.293 132.974 122.293 132.974 122.292C132.974 122.291 132.974 122.291 132.974 122.29C132.974 122.289 132.974 122.288 132.974 122.288C132.974 122.287 132.974 122.286 132.974 122.286C132.974 122.285 132.974 122.284 132.974 122.284C132.974 122.283 132.974 122.282 132.974 122.281C132.974 122.281 132.974 122.28 132.974 122.279C132.974 122.279 132.974 122.278 132.974 122.277C132.974 122.277 132.974 122.276 132.974 122.275C132.974 122.274 132.974 122.274 132.974 122.273C132.974 122.272 132.974 122.272 132.974 122.271C132.974 122.27 132.974 122.27 132.974 122.269C132.974 122.268 132.974 122.267 132.974 122.267C132.974 122.266 132.974 122.265 132.974 122.265C132.974 122.264 132.974 122.263 132.974 122.263C132.974 122.262 132.974 122.261 132.974 122.261C132.974 122.26 132.974 122.259 132.974 122.258C132.974 122.258 132.974 122.257 132.974 122.256C132.974 122.256 132.974 122.255 132.974 122.254C132.974 122.254 132.974 122.253 132.974 122.252C132.974 122.251 132.974 122.251 132.974 122.25C132.974 122.249 132.974 122.249 132.974 122.248C132.974 122.247 132.974 122.247 132.974 122.246C132.974 122.245 132.974 122.244 132.974 122.244C132.974 122.243 132.974 122.242 132.974 122.242C132.974 122.241 132.974 122.24 132.974 122.24C132.974 122.239 132.974 122.238 132.974 122.237C132.974 122.237 132.974 122.236 132.974 122.235C132.974 122.235 132.974 122.234 132.974 122.233C132.974 122.233 132.974 122.232 132.974 122.231C132.974 122.23 132.974 122.23 132.974 122.229C132.974 122.228 132.974 122.228 132.974 122.227C132.974 122.226 132.974 122.226 132.974 122.225C132.974 122.224 132.974 122.223 132.974 122.223C132.974 122.222 132.974 122.221 132.974 122.221C132.974 122.22 132.974 122.219 132.974 122.219C132.974 122.218 132.974 122.217 132.974 122.216C132.974 122.216 132.974 122.215 132.974 122.214C132.974 122.214 132.974 122.213 132.974 122.212C132.974 122.211 132.974 122.211 132.974 122.21C132.974 122.209 132.974 122.209 132.974 122.208C132.974 122.207 132.974 122.207 132.974 122.206C132.974 122.205 132.974 122.204 132.974 122.204C132.974 122.203 132.974 122.202 132.974 122.202C132.974 122.201 132.974 122.2 132.974 122.2C132.974 122.199 132.974 122.198 132.974 122.197C132.974 122.197 132.974 122.196 132.974 122.195C132.974 122.195 132.974 122.194 132.974 122.193C132.974 122.193 132.974 122.192 132.974 122.191C132.974 122.19 132.974 122.19 132.974 122.189C132.974 122.188 132.974 122.188 132.974 122.187C132.974 122.186 132.974 122.186 132.974 122.185C132.974 122.184 132.974 122.183 132.974 122.183C132.974 122.182 132.974 122.181 132.974 122.181C132.974 122.18 132.974 122.179 132.974 122.179C132.974 122.178 132.974 122.177 132.974 122.176C132.974 122.176 132.974 122.175 132.974 122.174C132.974 122.174 132.974 122.173 132.974 122.172C132.974 122.171 132.974 122.171 132.974 122.17C132.974 122.169 132.974 122.169 132.974 122.168C132.974 122.167 132.974 122.167 132.974 122.166C132.974 122.165 132.974 122.164 132.974 122.164C132.974 122.163 132.974 122.162 132.974 122.162C132.974 122.161 132.974 122.16 132.974 122.16C132.974 122.159 132.974 122.158 132.974 122.157C132.974 122.157 132.974 122.156 132.974 122.155C132.974 122.155 132.974 122.154 132.974 122.153C132.974 122.153 132.974 122.152 132.974 122.151C132.974 122.15 132.974 122.15 132.974 122.149C132.974 122.148 132.974 122.148 132.974 122.147C132.974 122.146 132.974 122.145 132.974 122.145C132.974 122.144 132.974 122.143 132.974 122.143C132.974 122.142 132.974 122.141 132.974 122.141C132.974 122.14 132.974 122.139 132.974 122.138C132.974 122.138 132.974 122.137 132.974 122.136C132.974 122.136 132.974 122.135 132.974 122.134C132.974 122.134 132.974 122.133 132.974 122.132C132.974 122.131 132.974 122.131 132.974 122.13C132.974 122.129 132.974 122.129 132.974 122.128C132.974 122.127 132.974 122.126 132.974 122.126C132.974 122.125 132.974 122.124 132.974 122.124C132.974 122.123 132.974 122.122 132.974 122.122C132.974 122.121 132.974 122.12 132.974 122.119C132.974 122.119 132.974 122.118 132.974 122.117C132.974 122.117 132.974 122.116 132.974 122.115C132.974 122.114 132.974 122.114 132.974 122.113C132.974 122.112 132.974 122.112 132.974 122.111C132.974 122.11 132.974 122.11 132.974 122.109C132.974 122.108 132.974 122.107 132.974 122.107C132.974 122.106 132.974 122.105 132.974 122.105C132.974 122.104 132.974 122.103 132.974 122.103C132.974 122.102 132.974 122.101 132.974 122.1C132.974 122.1 132.974 122.099 132.974 122.098C132.974 122.098 132.974 122.097 132.974 122.096C132.974 122.095 132.974 122.095 132.974 122.094C132.974 122.093 132.974 122.093 132.974 122.092C132.974 122.091 132.974 122.091 132.974 122.09C132.974 122.089 132.974 122.088 132.974 122.088C132.974 122.087 132.974 122.086 132.974 122.086C132.974 122.085 132.974 122.084 132.974 122.083C132.974 122.083 132.974 122.082 132.974 122.081C132.974 122.081 132.974 122.08 132.974 122.079C132.974 122.079 132.974 122.078 132.974 122.077C132.974 122.076 132.974 122.076 132.974 122.075C132.974 122.074 132.974 122.074 132.974 122.073C132.974 122.072 132.974 122.071 132.974 122.071C132.974 122.07 132.974 122.069 132.974 122.069C132.974 122.068 132.974 122.067 132.974 122.067C132.974 122.066 132.974 122.065 132.974 122.064C132.974 122.064 132.974 122.063 132.974 122.062C132.974 122.062 132.974 122.061 132.974 122.06C132.974 122.059 132.974 122.059 132.974 122.058C132.974 122.057 132.974 122.057 132.974 122.056C132.974 122.055 132.974 122.055 132.974 122.054C132.974 122.053 132.974 122.052 132.974 122.052C132.974 122.051 132.974 122.05 132.974 122.05C132.974 122.049 132.974 122.048 132.974 122.047C132.974 122.047 132.974 122.046 132.974 122.045C132.974 122.045 132.974 122.044 132.974 122.043C132.974 122.042 132.974 122.042 132.974 122.041C132.974 122.04 132.974 122.04 132.974 122.039C132.974 122.038 132.974 122.038 132.974 122.037C132.974 122.036 132.974 122.035 132.974 122.035C132.974 122.034 132.974 122.033 132.974 122.033C132.974 122.032 132.974 122.031 132.974 122.03C132.974 122.03 132.974 122.029 132.974 122.028C132.974 122.028 132.974 122.027 132.974 122.026C132.974 122.026 132.974 122.025 132.974 122.024C132.974 122.023 132.974 122.023 132.974 122.022C132.974 122.021 132.974 122.021 132.974 122.02C132.974 122.019 132.974 122.018 132.974 122.018C132.974 122.017 132.974 122.016 132.974 122.016C132.974 122.015 132.974 122.014 132.974 122.013C132.974 122.013 132.974 122.012 132.974 122.011C132.974 122.011 132.974 122.01 132.974 122.009C132.974 122.009 132.974 122.008 132.974 122.007C132.974 122.006 132.974 122.006 132.974 122.005C132.974 122.004 132.974 122.004 132.974 122.003C132.974 122.002 132.974 122.001 132.974 122.001C132.974 122 132.974 121.999 132.974 121.999C132.974 121.998 132.974 121.997 132.974 121.996C132.974 121.996 132.974 121.995 132.974 121.994C132.974 121.994 132.974 121.993 132.974 121.992C132.974 121.991 132.974 121.991 132.974 121.99C132.974 121.989 132.974 121.989 132.974 121.988C132.974 121.987 132.974 121.987 132.974 121.986C132.974 121.985 132.974 121.984 132.974 121.984C132.974 121.983 132.974 121.982 132.974 121.982C132.974 121.981 132.974 121.98 132.974 121.979C132.974 121.979 132.974 121.978 132.974 121.977C132.974 121.977 132.974 121.976 132.974 121.975C132.974 121.974 132.974 121.974 132.974 121.973C132.974 121.972 132.974 121.972 132.974 121.971C132.974 121.97 132.974 121.969 132.974 121.969C132.974 121.968 132.974 121.967 132.974 121.967C132.974 121.966 132.974 121.965 132.974 121.965C132.974 121.964 132.974 121.963 132.974 121.962C132.974 121.962 132.974 121.961 132.974 121.96C132.974 121.96 132.974 121.959 132.974 121.958C132.974 121.957 132.974 121.957 132.974 121.956C132.974 121.955 132.974 121.955 132.974 121.954C132.974 121.953 132.974 121.952 132.974 121.952C132.974 121.951 132.974 121.95 132.974 121.95C132.974 121.949 132.974 121.948 132.974 121.947C132.974 121.947 132.974 121.946 132.974 121.945C132.974 121.945 132.974 121.944 132.974 121.943C132.974 121.942 132.974 121.942 132.974 121.941C132.974 121.94 132.974 121.94 132.974 121.939C132.974 121.938 132.974 121.938 132.974 121.937C132.974 121.936 132.974 121.935 132.974 121.935C132.974 121.934 132.974 121.933 132.974 121.933C132.974 121.932 132.974 121.931 132.974 121.93C132.974 121.93 132.974 121.929 132.974 121.928C132.974 121.928 132.974 121.927 132.974 121.926C132.974 121.925 132.974 121.925 132.974 121.924C132.974 121.923 132.974 121.923 132.974 121.922C132.974 121.921 132.974 121.92 132.974 121.92C132.974 121.919 132.974 121.918 132.974 121.918C132.974 121.917 132.974 121.916 132.974 121.915C132.974 121.915 132.974 121.914 132.974 121.913C132.974 121.913 132.974 121.912 132.974 121.911C132.974 121.91 132.974 121.91 132.974 121.909C132.974 121.908 132.974 121.908 132.974 121.907C132.974 121.906 132.974 121.905 132.974 121.905C132.974 121.904 132.974 121.903 132.974 121.903C132.974 121.902 132.974 121.901 132.974 121.9C132.974 121.9 132.974 121.899 132.974 121.898C132.974 121.898 132.974 121.897 132.974 121.896C132.974 121.896 132.974 121.895 132.974 121.894C132.974 121.893 132.974 121.893 132.974 121.892C132.974 121.891 132.974 121.891 132.974 121.89C132.974 121.889 132.974 121.888 132.974 121.888C132.974 121.887 132.974 121.886 132.974 121.886C132.974 121.885 132.974 121.884 132.974 121.883C132.974 121.883 132.974 121.882 132.974 121.881C132.974 121.881 132.974 121.88 132.974 121.879C132.974 121.878 132.974 121.878 132.974 121.877C132.974 121.876 132.974 121.876 132.974 121.875C132.974 121.874 132.974 121.873 132.974 121.873C132.974 121.872 132.974 121.871 132.974 121.871C132.974 121.87 132.974 121.869 132.974 121.868C132.974 121.868 132.974 121.867 132.974 121.866C132.974 121.866 132.974 121.865 132.974 121.864C132.974 121.863 132.974 121.863 132.974 121.862C132.974 121.861 132.974 121.861 132.974 121.86C132.974 121.859 132.974 121.858 132.974 121.858C132.974 121.857 132.974 121.856 132.974 121.856C132.974 121.855 132.974 121.854 132.974 121.853C132.974 121.853 132.974 121.852 132.974 121.851C132.974 121.851 132.974 121.85 132.974 121.849C132.974 121.848 132.974 121.848 132.974 121.847C132.974 121.846 132.974 121.846 132.974 121.845C132.974 121.844 132.974 121.843 132.974 121.843C132.974 121.842 132.974 121.841 132.974 121.841C132.974 121.84 132.974 121.839 132.974 121.838C132.974 121.838 132.974 121.837 132.974 121.836C132.974 121.836 132.974 121.835 132.974 121.834C132.974 121.833 132.974 121.833 132.974 121.832C132.974 121.831 132.974 121.831 132.974 121.83C132.974 121.829 132.974 121.828 132.974 121.828C132.974 121.827 132.974 121.826 132.974 121.826C132.974 121.825 132.974 121.824 132.974 121.823C132.974 121.823 132.974 121.822 132.974 121.821C132.974 121.821 132.974 121.82 132.974 121.819C132.974 121.818 132.974 121.818 132.974 121.817C132.974 121.816 132.974 121.816 132.974 121.815C132.974 121.814 132.974 121.813 132.974 121.813C132.974 121.812 132.974 121.811 132.974 121.81C132.974 121.81 132.974 121.809 132.974 121.808C132.974 121.808 132.974 121.807 132.974 121.806C132.974 121.805 132.974 121.805 132.974 121.804C132.974 121.803 132.974 121.803 132.974 121.802C132.974 121.801 132.974 121.8 132.974 121.8C132.974 121.799 132.974 121.798 132.974 121.798C132.974 121.797 132.974 121.796 132.974 121.795C132.974 121.795 132.974 121.794 132.974 121.793C132.974 121.793 132.974 121.792 132.974 121.791C132.974 121.79 132.974 121.79 132.974 121.789C132.974 121.788 132.974 121.788 132.974 121.787C132.974 121.786 132.974 121.785 132.974 121.785C132.974 121.784 132.974 121.783 132.974 121.783C132.974 121.782 132.974 121.781 132.974 121.78C132.974 121.78 132.974 121.779 132.974 121.778C132.974 121.778 132.974 121.777 132.974 121.776C132.974 121.775 132.974 121.775 132.974 121.774C132.974 121.773 132.974 121.773 132.974 121.772C132.974 121.771 132.974 121.77 132.974 121.77C132.974 121.769 132.974 121.768 132.974 121.767C132.974 121.767 132.974 121.766 132.974 121.765C132.974 121.765 132.974 121.764 132.974 121.763C132.974 121.762 132.974 121.762 132.974 121.761C132.974 121.76 132.974 121.76 132.974 121.759C132.974 121.758 132.974 121.757 132.974 121.757C132.974 121.756 132.974 121.755 132.974 121.755C132.974 121.754 132.974 121.753 132.974 121.752C132.974 121.752 132.974 121.751 132.974 121.75C132.974 121.75 132.974 121.749 132.974 121.748C132.974 121.747 132.974 121.747 132.974 121.746C132.974 121.745 132.974 121.745 132.974 121.744C132.974 121.743 132.974 121.742 132.974 121.742C132.974 121.741 132.974 121.74 132.974 121.739C132.974 121.739 132.974 121.738 132.974 121.737C132.974 121.737 132.974 121.736 132.974 121.735C132.974 121.734 132.974 121.734 132.974 121.733C132.974 121.732 132.974 121.732 132.974 121.731C132.974 121.73 132.974 121.729 132.974 121.729C132.974 121.728 132.974 121.727 132.974 121.727C132.974 121.726 132.974 121.725 132.974 121.724C132.974 121.724 132.974 121.723 132.974 121.722C132.974 121.722 132.974 121.721 132.974 121.72C132.974 121.719 132.974 121.719 132.974 121.718C132.974 121.717 132.974 121.716 132.974 121.716C132.974 121.715 132.974 121.714 132.974 121.714C132.974 121.713 132.974 121.712 132.974 121.711C132.974 121.711 132.974 121.71 132.974 121.709C132.974 121.709 132.974 121.708 132.974 121.707C132.974 121.706 132.974 121.706 132.974 121.705C132.974 121.704 132.974 121.704 132.974 121.703C132.974 121.702 132.974 121.701 132.974 121.701C132.974 121.7 132.974 121.699 132.974 121.698C132.974 121.698 132.974 121.697 132.974 121.696C132.974 121.696 132.974 121.695 132.974 121.694C132.974 121.693 132.974 121.693 132.974 121.692C132.974 121.691 132.974 121.691 132.974 121.69C132.974 121.689 132.974 121.688 132.974 121.688C132.974 121.687 132.974 121.686 132.974 121.686C132.974 121.685 132.974 121.684 132.974 121.683C132.974 121.683 132.974 121.682 132.974 121.681C132.974 121.68 132.974 121.68 132.974 121.679C132.974 121.678 132.974 121.678 132.974 121.677C132.974 121.676 132.974 121.675 132.974 121.675C132.974 121.674 132.974 121.673 132.974 121.673C132.974 121.672 132.974 121.671 132.974 121.67C132.974 121.67 132.974 121.669 132.974 121.668C132.974 121.668 132.974 121.667 132.974 121.666C132.974 121.665 132.974 121.665 132.974 121.664C132.974 121.663 132.974 121.662 132.974 121.662C132.974 121.661 132.974 121.66 132.974 121.66C132.974 121.659 132.974 121.658 132.974 121.657C132.974 121.657 132.974 121.656 132.974 121.655C132.974 121.655 132.974 121.654 132.974 121.653C132.974 121.652 132.974 121.652 132.974 121.651C132.974 121.65 132.974 121.649 132.974 121.649C132.974 121.648 132.974 121.647 132.974 121.647C132.974 121.646 132.974 121.645 132.974 121.644C132.974 121.644 132.974 121.643 132.974 121.642C132.974 121.642 132.974 121.641 132.974 121.64C132.974 121.639 132.974 121.639 132.974 121.638C132.974 121.637 132.974 121.636 132.974 121.636C132.974 121.635 132.974 121.634 132.974 121.634C132.974 121.633 132.974 121.632 132.974 121.631C132.974 121.631 132.974 121.63 132.974 121.629C132.974 121.629 132.974 121.628 132.974 121.627C132.974 121.626 132.974 121.626 132.974 121.625C132.974 121.624 132.974 121.623 132.974 121.623C132.974 121.622 132.974 121.621 132.974 121.621C132.974 121.62 132.974 121.619 132.974 121.618C132.974 121.618 132.974 121.617 132.974 121.616C132.974 121.616 132.974 121.615 132.974 121.614C132.974 121.613 132.974 121.613 132.974 121.612C132.974 121.611 132.974 121.61 132.974 121.61C132.974 121.609 132.974 121.608 132.974 121.608C132.974 121.607 132.974 121.606 132.974 121.605C132.974 121.605 132.974 121.604 132.974 121.603C132.974 121.603 132.974 121.602 132.974 121.601C132.974 121.6 132.974 121.6 132.974 121.599C132.974 121.598 132.974 121.597 132.974 121.597C132.974 121.596 132.974 121.595 132.974 121.595C132.974 121.594 132.974 121.593 132.974 121.592C132.974 121.592 132.974 121.591 132.974 121.59C132.974 121.589 132.974 121.589 132.974 121.588C132.974 121.587 132.974 121.587 132.974 121.586C132.974 121.585 132.974 121.584 132.974 121.584C132.974 121.583 132.974 121.582 132.974 121.582C132.974 121.581 132.974 121.58 132.974 121.579C132.974 121.579 132.974 121.578 132.974 121.577C132.974 121.576 132.974 121.576 132.974 121.575C132.974 121.574 132.974 121.574 132.974 121.573C132.974 121.572 132.974 121.571 132.974 121.571C132.974 121.57 132.974 121.569 132.974 121.568C132.974 121.568 132.974 121.567 132.974 121.566C132.974 121.566 132.974 121.565 132.974 121.564C132.974 121.563 132.974 121.563 132.974 121.562C132.974 121.561 132.974 121.561 132.974 121.56C132.974 121.559 132.974 121.558 132.974 121.558C132.974 121.557 132.974 121.556 132.974 121.555C132.974 121.555 132.974 121.554 132.974 121.553C132.974 121.553 132.974 121.552 132.974 121.551C132.974 121.55 132.974 121.55 132.974 121.549C132.974 121.548 132.974 121.547 132.974 121.547H117.041C117.041 121.547 117.041 121.548 117.041 121.549C117.041 121.55 117.041 121.55 117.041 121.551C117.041 121.552 117.041 121.553 117.041 121.553C117.041 121.554 117.041 121.555 117.041 121.555C117.041 121.556 117.041 121.557 117.041 121.558C117.041 121.558 117.041 121.559 117.041 121.56C117.041 121.561 117.041 121.561 117.041 121.562C117.041 121.563 117.041 121.563 117.041 121.564C117.041 121.565 117.041 121.566 117.041 121.566C117.041 121.567 117.041 121.568 117.041 121.568C117.041 121.569 117.041 121.57 117.041 121.571C117.041 121.571 117.041 121.572 117.041 121.573C117.041 121.574 117.041 121.574 117.041 121.575C117.041 121.576 117.041 121.576 117.041 121.577C117.041 121.578 117.041 121.579 117.041 121.579C117.041 121.58 117.041 121.581 117.041 121.582C117.041 121.582 117.041 121.583 117.041 121.584C117.041 121.584 117.041 121.585 117.041 121.586C117.041 121.587 117.041 121.587 117.041 121.588C117.041 121.589 117.041 121.589 117.041 121.59C117.041 121.591 117.041 121.592 117.041 121.592C117.041 121.593 117.041 121.594 117.041 121.595C117.041 121.595 117.041 121.596 117.041 121.597C117.041 121.597 117.041 121.598 117.041 121.599C117.041 121.6 117.041 121.6 117.041 121.601C117.041 121.602 117.041 121.603 117.041 121.603C117.041 121.604 117.041 121.605 117.041 121.605C117.041 121.606 117.041 121.607 117.041 121.608C117.041 121.608 117.041 121.609 117.041 121.61C117.041 121.61 117.041 121.611 117.041 121.612C117.041 121.613 117.041 121.613 117.041 121.614C117.041 121.615 117.041 121.616 117.041 121.616C117.041 121.617 117.041 121.618 117.041 121.618C117.041 121.619 117.041 121.62 117.041 121.621C117.041 121.621 117.041 121.622 117.041 121.623C117.041 121.623 117.041 121.624 117.041 121.625C117.041 121.626 117.041 121.626 117.041 121.627C117.041 121.628 117.041 121.629 117.041 121.629C117.041 121.63 117.041 121.631 117.041 121.631C117.041 121.632 117.041 121.633 117.041 121.634C117.041 121.634 117.041 121.635 117.041 121.636C117.041 121.636 117.041 121.637 117.041 121.638C117.041 121.639 117.041 121.639 117.041 121.64C117.041 121.641 117.041 121.642 117.041 121.642C117.041 121.643 117.041 121.644 117.041 121.644C117.041 121.645 117.041 121.646 117.041 121.647C117.041 121.647 117.041 121.648 117.041 121.649C117.041 121.649 117.041 121.65 117.041 121.651C117.041 121.652 117.041 121.652 117.041 121.653C117.041 121.654 117.041 121.655 117.041 121.655C117.041 121.656 117.041 121.657 117.041 121.657C117.041 121.658 117.041 121.659 117.041 121.66C117.041 121.66 117.041 121.661 117.041 121.662C117.041 121.662 117.041 121.663 117.041 121.664C117.041 121.665 117.041 121.665 117.041 121.666C117.041 121.667 117.041 121.668 117.041 121.668C117.041 121.669 117.041 121.67 117.041 121.67C117.041 121.671 117.041 121.672 117.041 121.673C117.041 121.673 117.041 121.674 117.041 121.675C117.041 121.675 117.041 121.676 117.041 121.677C117.041 121.678 117.041 121.678 117.041 121.679C117.041 121.68 117.041 121.68 117.041 121.681C117.041 121.682 117.041 121.683 117.041 121.683C117.041 121.684 117.041 121.685 117.041 121.686C117.041 121.686 117.041 121.687 117.041 121.688C117.041 121.688 117.041 121.689 117.041 121.69C117.041 121.691 117.041 121.691 117.041 121.692C117.041 121.693 117.041 121.693 117.041 121.694C117.041 121.695 117.041 121.696 117.041 121.696C117.041 121.697 117.041 121.698 117.041 121.698C117.041 121.699 117.041 121.7 117.041 121.701C117.041 121.701 117.041 121.702 117.041 121.703C117.041 121.704 117.041 121.704 117.041 121.705C117.041 121.706 117.041 121.706 117.041 121.707C117.041 121.708 117.041 121.709 117.041 121.709C117.041 121.71 117.041 121.711 117.041 121.711C117.041 121.712 117.041 121.713 117.041 121.714C117.041 121.714 117.041 121.715 117.041 121.716C117.041 121.716 117.041 121.717 117.041 121.718C117.041 121.719 117.041 121.719 117.041 121.72C117.041 121.721 117.041 121.722 117.041 121.722C117.041 121.723 117.041 121.724 117.041 121.724C117.041 121.725 117.041 121.726 117.041 121.727C117.041 121.727 117.041 121.728 117.041 121.729C117.041 121.729 117.041 121.73 117.041 121.731C117.041 121.732 117.041 121.732 117.041 121.733C117.041 121.734 117.041 121.734 117.041 121.735C117.041 121.736 117.041 121.737 117.041 121.737C117.041 121.738 117.041 121.739 117.041 121.739C117.041 121.74 117.041 121.741 117.041 121.742C117.041 121.742 117.041 121.743 117.041 121.744C117.041 121.745 117.041 121.745 117.041 121.746C117.041 121.747 117.041 121.747 117.041 121.748C117.041 121.749 117.041 121.75 117.041 121.75C117.041 121.751 117.041 121.752 117.041 121.752C117.041 121.753 117.041 121.754 117.041 121.755C117.041 121.755 117.041 121.756 117.041 121.757C117.041 121.757 117.041 121.758 117.041 121.759C117.041 121.76 117.041 121.76 117.041 121.761C117.041 121.762 117.041 121.762 117.041 121.763C117.041 121.764 117.041 121.765 117.041 121.765C117.041 121.766 117.041 121.767 117.041 121.767C117.041 121.768 117.041 121.769 117.041 121.77C117.041 121.77 117.041 121.771 117.041 121.772C117.041 121.773 117.041 121.773 117.041 121.774C117.041 121.775 117.041 121.775 117.041 121.776C117.041 121.777 117.041 121.778 117.041 121.778C117.041 121.779 117.041 121.78 117.041 121.78C117.041 121.781 117.041 121.782 117.041 121.783C117.041 121.783 117.041 121.784 117.041 121.785C117.041 121.785 117.041 121.786 117.041 121.787C117.041 121.788 117.041 121.788 117.041 121.789C117.041 121.79 117.041 121.79 117.041 121.791C117.041 121.792 117.041 121.793 117.041 121.793C117.041 121.794 117.041 121.795 117.041 121.795C117.041 121.796 117.041 121.797 117.041 121.798C117.041 121.798 117.041 121.799 117.041 121.8C117.041 121.8 117.041 121.801 117.041 121.802C117.041 121.803 117.041 121.803 117.041 121.804C117.041 121.805 117.041 121.805 117.041 121.806C117.041 121.807 117.041 121.808 117.041 121.808C117.041 121.809 117.041 121.81 117.041 121.81C117.041 121.811 117.041 121.812 117.041 121.813C117.041 121.813 117.041 121.814 117.041 121.815C117.041 121.816 117.041 121.816 117.041 121.817C117.041 121.818 117.041 121.818 117.041 121.819C117.041 121.82 117.041 121.821 117.041 121.821C117.041 121.822 117.041 121.823 117.041 121.823C117.041 121.824 117.041 121.825 117.041 121.826C117.041 121.826 117.041 121.827 117.041 121.828C117.041 121.828 117.041 121.829 117.041 121.83C117.041 121.831 117.041 121.831 117.041 121.832C117.041 121.833 117.041 121.833 117.041 121.834C117.041 121.835 117.041 121.836 117.041 121.836C117.041 121.837 117.041 121.838 117.041 121.838C117.041 121.839 117.041 121.84 117.041 121.841C117.041 121.841 117.041 121.842 117.041 121.843C117.041 121.843 117.041 121.844 117.041 121.845C117.041 121.846 117.041 121.846 117.041 121.847C117.041 121.848 117.041 121.848 117.041 121.849C117.041 121.85 117.041 121.851 117.041 121.851C117.041 121.852 117.041 121.853 117.041 121.853C117.041 121.854 117.041 121.855 117.041 121.856C117.041 121.856 117.041 121.857 117.041 121.858C117.041 121.858 117.041 121.859 117.041 121.86C117.041 121.861 117.041 121.861 117.041 121.862C117.041 121.863 117.041 121.863 117.041 121.864C117.041 121.865 117.041 121.866 117.041 121.866C117.041 121.867 117.041 121.868 117.041 121.868C117.041 121.869 117.041 121.87 117.041 121.871C117.041 121.871 117.041 121.872 117.041 121.873C117.041 121.873 117.041 121.874 117.041 121.875C117.041 121.876 117.041 121.876 117.041 121.877C117.041 121.878 117.041 121.878 117.041 121.879C117.041 121.88 117.041 121.881 117.041 121.881C117.041 121.882 117.041 121.883 117.041 121.883C117.041 121.884 117.041 121.885 117.041 121.886C117.041 121.886 117.041 121.887 117.041 121.888C117.041 121.888 117.041 121.889 117.041 121.89C117.041 121.891 117.041 121.891 117.041 121.892C117.041 121.893 117.041 121.893 117.041 121.894C117.041 121.895 117.041 121.896 117.041 121.896C117.041 121.897 117.041 121.898 117.041 121.898C117.041 121.899 117.041 121.9 117.041 121.9C117.041 121.901 117.041 121.902 117.041 121.903C117.041 121.903 117.041 121.904 117.041 121.905C117.041 121.905 117.041 121.906 117.041 121.907C117.041 121.908 117.041 121.908 117.041 121.909C117.041 121.91 117.041 121.91 117.041 121.911C117.041 121.912 117.041 121.913 117.041 121.913C117.041 121.914 117.041 121.915 117.041 121.915C117.041 121.916 117.041 121.917 117.041 121.918C117.041 121.918 117.041 121.919 117.041 121.92C117.041 121.92 117.041 121.921 117.041 121.922C117.041 121.923 117.041 121.923 117.041 121.924C117.041 121.925 117.041 121.925 117.041 121.926C117.041 121.927 117.041 121.928 117.041 121.928C117.041 121.929 117.041 121.93 117.041 121.93C117.041 121.931 117.041 121.932 117.041 121.933C117.041 121.933 117.041 121.934 117.041 121.935C117.041 121.935 117.041 121.936 117.041 121.937C117.041 121.938 117.041 121.938 117.041 121.939C117.041 121.94 117.041 121.94 117.041 121.941C117.041 121.942 117.041 121.942 117.041 121.943C117.041 121.944 117.041 121.945 117.041 121.945C117.041 121.946 117.041 121.947 117.041 121.947C117.041 121.948 117.041 121.949 117.041 121.95C117.041 121.95 117.041 121.951 117.041 121.952C117.041 121.952 117.041 121.953 117.041 121.954C117.041 121.955 117.041 121.955 117.041 121.956C117.041 121.957 117.041 121.957 117.041 121.958C117.041 121.959 117.041 121.96 117.041 121.96C117.041 121.961 117.041 121.962 117.041 121.962C117.041 121.963 117.041 121.964 117.041 121.965C117.041 121.965 117.041 121.966 117.041 121.967C117.041 121.967 117.041 121.968 117.041 121.969C117.041 121.969 117.041 121.97 117.041 121.971C117.041 121.972 117.041 121.972 117.041 121.973C117.041 121.974 117.041 121.974 117.041 121.975C117.041 121.976 117.041 121.977 117.041 121.977C117.041 121.978 117.041 121.979 117.041 121.979C117.041 121.98 117.041 121.981 117.041 121.982C117.041 121.982 117.041 121.983 117.041 121.984C117.041 121.984 117.041 121.985 117.041 121.986C117.041 121.987 117.041 121.987 117.041 121.988C117.041 121.989 117.041 121.989 117.041 121.99C117.041 121.991 117.041 121.991 117.041 121.992C117.041 121.993 117.041 121.994 117.041 121.994C117.041 121.995 117.041 121.996 117.041 121.996C117.041 121.997 117.041 121.998 117.041 121.999C117.041 121.999 117.041 122 117.041 122.001C117.041 122.001 117.041 122.002 117.041 122.003C117.041 122.004 117.041 122.004 117.041 122.005C117.041 122.006 117.041 122.006 117.041 122.007C117.041 122.008 117.041 122.009 117.041 122.009C117.041 122.01 117.041 122.011 117.041 122.011C117.041 122.012 117.041 122.013 117.041 122.013C117.041 122.014 117.041 122.015 117.041 122.016C117.041 122.016 117.041 122.017 117.041 122.018C117.041 122.018 117.041 122.019 117.041 122.02C117.041 122.021 117.041 122.021 117.041 122.022C117.041 122.023 117.041 122.023 117.041 122.024C117.041 122.025 117.041 122.026 117.041 122.026C117.041 122.027 117.041 122.028 117.041 122.028C117.041 122.029 117.041 122.03 117.041 122.03C117.041 122.031 117.041 122.032 117.041 122.033C117.041 122.033 117.041 122.034 117.041 122.035C117.041 122.035 117.041 122.036 117.041 122.037C117.041 122.038 117.041 122.038 117.041 122.039C117.041 122.04 117.041 122.04 117.041 122.041C117.041 122.042 117.041 122.042 117.041 122.043C117.041 122.044 117.041 122.045 117.041 122.045C117.041 122.046 117.041 122.047 117.041 122.047C117.041 122.048 117.041 122.049 117.041 122.05C117.041 122.05 117.041 122.051 117.041 122.052C117.041 122.052 117.041 122.053 117.041 122.054C117.041 122.055 117.041 122.055 117.041 122.056C117.041 122.057 117.041 122.057 117.041 122.058C117.041 122.059 117.041 122.059 117.041 122.06C117.041 122.061 117.041 122.062 117.041 122.062C117.041 122.063 117.041 122.064 117.041 122.064C117.041 122.065 117.041 122.066 117.041 122.067C117.041 122.067 117.041 122.068 117.041 122.069C117.041 122.069 117.041 122.07 117.041 122.071C117.041 122.071 117.041 122.072 117.041 122.073C117.041 122.074 117.041 122.074 117.041 122.075C117.041 122.076 117.041 122.076 117.041 122.077C117.041 122.078 117.041 122.079 117.041 122.079C117.041 122.08 117.041 122.081 117.041 122.081C117.041 122.082 117.041 122.083 117.041 122.083C117.041 122.084 117.041 122.085 117.041 122.086C117.041 122.086 117.041 122.087 117.041 122.088C117.041 122.088 117.041 122.089 117.041 122.09C117.041 122.091 117.041 122.091 117.041 122.092C117.041 122.093 117.041 122.093 117.041 122.094C117.041 122.095 117.041 122.095 117.041 122.096C117.041 122.097 117.041 122.098 117.041 122.098C117.041 122.099 117.041 122.1 117.041 122.1C117.041 122.101 117.041 122.102 117.041 122.103C117.041 122.103 117.041 122.104 117.041 122.105C117.041 122.105 117.041 122.106 117.041 122.107C117.041 122.107 117.041 122.108 117.041 122.109C117.041 122.11 117.041 122.11 117.041 122.111C117.041 122.112 117.041 122.112 117.041 122.113C117.041 122.114 117.041 122.114 117.041 122.115C117.041 122.116 117.041 122.117 117.041 122.117C117.041 122.118 117.041 122.119 117.041 122.119C117.041 122.12 117.041 122.121 117.041 122.122C117.041 122.122 117.041 122.123 117.041 122.124C117.041 122.124 117.041 122.125 117.041 122.126C117.041 122.126 117.041 122.127 117.041 122.128C117.041 122.129 117.041 122.129 117.041 122.13C117.041 122.131 117.041 122.131 117.041 122.132C117.041 122.133 117.041 122.134 117.041 122.134C117.041 122.135 117.041 122.136 117.041 122.136C117.041 122.137 117.041 122.138 117.041 122.138C117.041 122.139 117.041 122.14 117.041 122.141C117.041 122.141 117.041 122.142 117.041 122.143C117.041 122.143 117.041 122.144 117.041 122.145C117.041 122.145 117.041 122.146 117.041 122.147C117.041 122.148 117.041 122.148 117.041 122.149C117.041 122.15 117.041 122.15 117.041 122.151C117.041 122.152 117.041 122.153 117.041 122.153C117.041 122.154 117.041 122.155 117.041 122.155C117.041 122.156 117.041 122.157 117.041 122.157C117.041 122.158 117.041 122.159 117.041 122.16C117.041 122.16 117.041 122.161 117.041 122.162C117.041 122.162 117.041 122.163 117.041 122.164C117.041 122.164 117.041 122.165 117.041 122.166C117.041 122.167 117.041 122.167 117.041 122.168C117.041 122.169 117.041 122.169 117.041 122.17C117.041 122.171 117.041 122.171 117.041 122.172C117.041 122.173 117.041 122.174 117.041 122.174C117.041 122.175 117.041 122.176 117.041 122.176C117.041 122.177 117.041 122.178 117.041 122.179C117.041 122.179 117.041 122.18 117.041 122.181C117.041 122.181 117.041 122.182 117.041 122.183C117.041 122.183 117.041 122.184 117.041 122.185C117.041 122.186 117.041 122.186 117.041 122.187C117.041 122.188 117.041 122.188 117.041 122.189C117.041 122.19 117.041 122.19 117.041 122.191C117.041 122.192 117.041 122.193 117.041 122.193C117.041 122.194 117.041 122.195 117.041 122.195C117.041 122.196 117.041 122.197 117.041 122.197C117.041 122.198 117.041 122.199 117.041 122.2C117.041 122.2 117.041 122.201 117.041 122.202C117.041 122.202 117.041 122.203 117.041 122.204C117.041 122.204 117.041 122.205 117.041 122.206C117.041 122.207 117.041 122.207 117.041 122.208C117.041 122.209 117.041 122.209 117.041 122.21C117.041 122.211 117.041 122.211 117.041 122.212C117.041 122.213 117.041 122.214 117.041 122.214C117.041 122.215 117.041 122.216 117.041 122.216C117.041 122.217 117.041 122.218 117.041 122.219C117.041 122.219 117.041 122.22 117.041 122.221C117.041 122.221 117.041 122.222 117.041 122.223C117.041 122.223 117.041 122.224 117.041 122.225C117.041 122.226 117.041 122.226 117.041 122.227C117.041 122.228 117.041 122.228 117.041 122.229C117.041 122.23 117.041 122.23 117.041 122.231C117.041 122.232 117.041 122.233 117.041 122.233C117.041 122.234 117.041 122.235 117.041 122.235C117.041 122.236 117.041 122.237 117.041 122.237C117.041 122.238 117.041 122.239 117.041 122.24C117.041 122.24 117.041 122.241 117.041 122.242C117.041 122.242 117.041 122.243 117.041 122.244C117.041 122.244 117.041 122.245 117.041 122.246C117.041 122.247 117.041 122.247 117.041 122.248C117.041 122.249 117.041 122.249 117.041 122.25C117.041 122.251 117.041 122.251 117.041 122.252C117.041 122.253 117.041 122.254 117.041 122.254C117.041 122.255 117.041 122.256 117.041 122.256C117.041 122.257 117.041 122.258 117.041 122.258C117.041 122.259 117.041 122.26 117.041 122.261C117.041 122.261 117.041 122.262 117.041 122.263C117.041 122.263 117.041 122.264 117.041 122.265C117.041 122.265 117.041 122.266 117.041 122.267C117.041 122.267 117.041 122.268 117.041 122.269C117.041 122.27 117.041 122.27 117.041 122.271C117.041 122.272 117.041 122.272 117.041 122.273C117.041 122.274 117.041 122.274 117.041 122.275C117.041 122.276 117.041 122.277 117.041 122.277C117.041 122.278 117.041 122.279 117.041 122.279C117.041 122.28 117.041 122.281 117.041 122.281C117.041 122.282 117.041 122.283 117.041 122.284C117.041 122.284 117.041 122.285 117.041 122.286C117.041 122.286 117.041 122.287 117.041 122.288C117.041 122.288 117.041 122.289 117.041 122.29C117.041 122.291 117.041 122.291 117.041 122.292C117.041 122.293 117.041 122.293 117.041 122.294C117.041 122.295 117.041 122.295 117.041 122.296C117.041 122.297 117.041 122.298 117.041 122.298C117.041 122.299 117.041 122.3 117.041 122.3C117.041 122.301 117.041 122.302 117.041 122.302C117.041 122.303 117.041 122.304 117.041 122.305C117.041 122.305 117.041 122.306 117.041 122.307C117.041 122.307 117.041 122.308 117.041 122.309C117.041 122.309 117.041 122.31 117.041 122.311C117.041 122.311 117.041 122.312 117.041 122.313C117.041 122.314 117.041 122.314 117.041 122.315C117.041 122.316 117.041 122.316 117.041 122.317C117.041 122.318 117.041 122.318 117.041 122.319C117.041 122.32 117.041 122.321 117.041 122.321C117.041 122.322 117.041 122.323 117.041 122.323C117.041 122.324 117.041 122.325 117.041 122.325C117.041 122.326 117.041 122.327 117.041 122.328C117.041 122.328 117.041 122.329 117.041 122.33C117.041 122.33 117.041 122.331 117.041 122.332C117.041 122.332 117.041 122.333 117.041 122.334C117.041 122.334 117.041 122.335 117.041 122.336C117.041 122.337 117.041 122.337 117.041 122.338C117.041 122.339 117.041 122.339 117.041 122.34C117.041 122.341 117.041 122.341 117.041 122.342C117.041 122.343 117.041 122.344 117.041 122.344C117.041 122.345 117.041 122.346 117.041 122.346C117.041 122.347 117.041 122.348 117.041 122.348C117.041 122.349 117.041 122.35 117.041 122.35C117.041 122.351 117.041 122.352 117.041 122.353C117.041 122.353 117.041 122.354 117.041 122.355C117.041 122.355 117.041 122.356 117.041 122.357C117.041 122.357 117.041 122.358 117.041 122.359C117.041 122.36 117.041 122.36 117.041 122.361C117.041 122.362 117.041 122.362 117.041 122.363C117.041 122.364 117.041 122.364 117.041 122.365C117.041 122.366 117.041 122.366 117.041 122.367C117.041 122.368 117.041 122.369 117.041 122.369C117.041 122.37 117.041 122.371 117.041 122.371C117.041 122.372 117.041 122.373 117.041 122.373C117.041 122.374 117.041 122.375 117.041 122.376C117.041 122.376 117.041 122.377 117.041 122.378C117.041 122.378 117.041 122.379 117.041 122.38C117.041 122.38 117.041 122.381 117.041 122.382C117.041 122.382 117.041 122.383 117.041 122.384C117.041 122.385 117.041 122.385 117.041 122.386C117.041 122.387 117.041 122.387 117.041 122.388C117.041 122.389 117.041 122.389 117.041 122.39C117.041 122.391 117.041 122.391 117.041 122.392C117.041 122.393 117.041 122.394 117.041 122.394C117.041 122.395 117.041 122.396 117.041 122.396C117.041 122.397 117.041 122.398 117.041 122.398C117.041 122.399 117.041 122.4 117.041 122.401C117.041 122.401 117.041 122.402 117.041 122.403C117.041 122.403 117.041 122.404 117.041 122.405C117.041 122.405 117.041 122.406 117.041 122.407C117.041 122.407 117.041 122.408 117.041 122.409C117.041 122.41 117.041 122.41 117.041 122.411C117.041 122.412 117.041 122.412 117.041 122.413C117.041 122.414 117.041 122.414 117.041 122.415C117.041 122.416 117.041 122.416 117.041 122.417C117.041 122.418 117.041 122.419 117.041 122.419C117.041 122.42 117.041 122.421 117.041 122.421C117.041 122.422 117.041 122.423 117.041 122.423C117.041 122.424 117.041 122.425 117.041 122.425C117.041 122.426 117.041 122.427 117.041 122.428C117.041 122.428 117.041 122.429 117.041 122.43C117.041 122.43 117.041 122.431 117.041 122.432C117.041 122.432 117.041 122.433 117.041 122.434C117.041 122.434 117.041 122.435 117.041 122.436C117.041 122.437 117.041 122.437 117.041 122.438C117.041 122.439 117.041 122.439 117.041 122.44C117.041 122.441 117.041 122.441 117.041 122.442C117.041 122.443 117.041 122.443 117.041 122.444C117.041 122.445 117.041 122.446 117.041 122.446C117.041 122.447 117.041 122.448 117.041 122.448C117.041 122.449 117.041 122.45 117.041 122.45C117.041 122.451 117.041 122.452 117.041 122.452C117.041 122.453 117.041 122.454 117.041 122.455C117.041 122.455 117.041 122.456 117.041 122.457C117.041 122.457 117.041 122.458 117.041 122.459C117.041 122.459 117.041 122.46 117.041 122.461C117.041 122.461 117.041 122.462 117.041 122.463C117.041 122.464 117.041 122.464 117.041 122.465C117.041 122.466 117.041 122.466 117.041 122.467C117.041 122.468 117.041 122.468 117.041 122.469C117.041 122.47 117.041 122.47 117.041 122.471C117.041 122.472 117.041 122.473 117.041 122.473C117.041 122.474 117.041 122.475 117.041 122.475C117.041 122.476 117.041 122.477 117.041 122.477C117.041 122.478 117.041 122.479 117.041 122.479C117.041 122.48 117.041 122.481 117.041 122.482C117.041 122.482 117.041 122.483 117.041 122.484C117.041 122.484 117.041 122.485 117.041 122.486C117.041 122.486 117.041 122.487 117.041 122.488C117.041 122.488 117.041 122.489 117.041 122.49C117.041 122.491 117.041 122.491 117.041 122.492C117.041 122.493 117.041 122.493 117.041 122.494C117.041 122.495 117.041 122.495 117.041 122.496C117.041 122.497 117.041 122.497 117.041 122.498C117.041 122.499 117.041 122.499 117.041 122.5C117.041 122.501 117.041 122.502 117.041 122.502C117.041 122.503 117.041 122.504 117.041 122.504C117.041 122.505 117.041 122.506 117.041 122.506C117.041 122.507 117.041 122.508 117.041 122.508C117.041 122.509 117.041 122.51 117.041 122.511C117.041 122.511 117.041 122.512 117.041 122.513C117.041 122.513 117.041 122.514 117.041 122.515C117.041 122.515 117.041 122.516 117.041 122.517C117.041 122.517 117.041 122.518 117.041 122.519C117.041 122.519 117.041 122.52 117.041 122.521C117.041 122.522 117.041 122.522 117.041 122.523C117.041 122.524 117.041 122.524 117.041 122.525C117.041 122.526 117.041 122.526 117.041 122.527C117.041 122.528 117.041 122.528 117.041 122.529C117.041 122.53 117.041 122.531 117.041 122.531C117.041 122.532 117.041 122.533 117.041 122.533C117.041 122.534 117.041 122.535 117.041 122.535C117.041 122.536 117.041 122.537 117.041 122.537C117.041 122.538 117.041 122.539 117.041 122.539C117.041 122.54 117.041 122.541 117.041 122.542C117.041 122.542 117.041 122.543 117.041 122.544C117.041 122.544 117.041 122.545 117.041 122.546C117.041 122.546 117.041 122.547 117.041 122.548C117.041 122.548 117.041 122.549 117.041 122.55C117.041 122.55 117.041 122.551 117.041 122.552C117.041 122.553 117.041 122.553 117.041 122.554C117.041 122.555 117.041 122.555 117.041 122.556C117.041 122.557 117.041 122.557 117.041 122.558C117.041 122.559 117.041 122.559 117.041 122.56C117.041 122.561 117.041 122.561 117.041 122.562C117.041 122.563 117.041 122.564 117.041 122.564C117.041 122.565 117.041 122.566 117.041 122.566C117.041 122.567 117.041 122.568 117.041 122.568C117.041 122.569 117.041 122.57 117.041 122.57C117.041 122.571 117.041 122.572 117.041 122.572C117.041 122.573 117.041 122.574 117.041 122.575C117.041 122.575 117.041 122.576 117.041 122.577C117.041 122.577 117.041 122.578 117.041 122.579C117.041 122.579 117.041 122.58 117.041 122.581C117.041 122.581 117.041 122.582 117.041 122.583C117.041 122.583 117.041 122.584 117.041 122.585C117.041 122.586 117.041 122.586 117.041 122.587C117.041 122.588 117.041 122.588 117.041 122.589C117.041 122.59 117.041 122.59 117.041 122.591C117.041 122.592 117.041 122.592 117.041 122.593C117.041 122.594 117.041 122.594 117.041 122.595C117.041 122.596 117.041 122.597 117.041 122.597C117.041 122.598 117.041 122.599 117.041 122.599C117.041 122.6 117.041 122.601 117.041 122.601C117.041 122.602 117.041 122.603 117.041 122.603C117.041 122.604 117.041 122.605 117.041 122.605C117.041 122.606 117.041 122.607 117.041 122.608C117.041 122.608 117.041 122.609 117.041 122.61C117.041 122.61 117.041 122.611 117.041 122.612C117.041 122.612 117.041 122.613 117.041 122.614C117.041 122.614 117.041 122.615 117.041 122.616C117.041 122.616 117.041 122.617 117.041 122.618C117.041 122.618 117.041 122.619 117.041 122.62C117.041 122.621 117.041 122.621 117.041 122.622C117.041 122.623 117.041 122.623 117.041 122.624C117.041 122.625 117.041 122.625 117.041 122.626C117.041 122.627 117.041 122.627 117.041 122.628C117.041 122.629 117.041 122.629 117.041 122.63H132.974ZM132.974 121.547C132.974 120.733 132.91 119.926 132.784 119.128L117.046 121.613C117.044 121.599 117.041 121.576 117.041 121.547H132.974ZM119.803 126.48L121.319 127.749L131.544 115.53L130.027 114.261L119.803 126.48ZM119.268 118.155C119.335 118.018 119.493 117.768 119.775 117.525L130.178 129.593C131.657 128.318 132.786 126.789 133.595 125.125L119.268 118.155ZM119.775 117.525C120.019 117.314 120.246 117.213 120.353 117.178L125.391 132.293C127.107 131.72 128.737 130.835 130.178 129.593L119.775 117.525ZM120.353 117.178C120.514 117.124 120.471 117.171 120.117 117.171V133.104C121.826 133.104 123.62 132.883 125.391 132.293L120.353 117.178ZM120.117 117.171C119.982 117.171 119.913 117.158 119.894 117.153C119.883 117.151 119.879 117.149 119.88 117.15C119.881 117.15 119.882 117.151 119.882 117.151L112.861 131.453C115.171 132.587 117.633 133.104 120.117 133.104V117.171ZM120.038 117.23C120.035 117.228 120.078 117.251 120.142 117.307C120.207 117.364 120.256 117.424 120.286 117.468L107.071 126.368C108.519 128.519 110.442 130.201 112.704 131.374L120.038 117.23ZM120.327 117.53C120.445 117.709 120.53 117.902 120.579 118.076C120.627 118.244 120.623 118.331 120.623 118.296H104.69C104.69 121.048 105.389 123.821 107.029 126.306L120.327 117.53ZM120.623 118.296C120.623 118.219 120.632 118.281 120.587 118.436C120.539 118.6 120.453 118.785 120.334 118.956L107.27 109.836C105.455 112.436 104.69 115.378 104.69 118.296H120.623ZM120.374 118.899C120.365 118.912 120.349 118.932 120.327 118.957C120.305 118.981 120.282 119.004 120.259 119.023C120.209 119.065 120.191 119.066 120.242 119.043L113.491 104.611C110.985 105.783 108.835 107.551 107.23 109.893L120.374 118.899ZM120.336 118.998C120.426 118.954 120.646 118.865 121.138 118.865V102.932C118.494 102.932 115.866 103.461 113.397 104.656L120.336 118.998ZM121.541 107.297C119.908 107.297 118.091 107.623 116.327 108.547L123.72 122.66C122.823 123.13 122.018 123.229 121.541 123.229V107.297ZM116.327 108.547C114.675 109.412 113.3 110.67 112.292 112.221L125.651 120.905C125.179 121.63 124.506 122.249 123.72 122.66L116.327 108.547ZM112.236 112.309C111.007 114.254 110.634 116.304 110.634 118.018H126.566C126.566 118.576 126.44 119.656 125.707 120.817L112.236 112.309ZM110.634 118.018C110.634 120.746 111.61 123.645 114.001 125.853L124.808 114.145C125.379 114.672 125.864 115.351 126.182 116.134C126.491 116.894 126.566 117.563 126.566 118.018H110.634ZM114.112 125.953C116.396 127.983 119.125 128.708 121.572 128.708V112.776C121.867 112.776 122.355 112.817 122.948 113.02C123.561 113.231 124.167 113.574 124.697 114.045L114.112 125.953ZM121.572 128.708C123.186 128.708 124.971 128.398 126.713 127.527L119.588 113.276C120.421 112.859 121.154 112.776 121.572 112.776V128.708ZM126.713 127.527C128.445 126.661 129.963 125.325 131.034 123.54L117.372 115.343C117.947 114.384 118.764 113.688 119.588 113.276L126.713 127.527ZM131.034 123.54C132.135 121.705 132.541 119.757 132.541 117.987H116.608C116.608 117.331 116.766 116.353 117.372 115.343L131.034 123.54ZM132.541 117.987C132.541 116.186 132.11 114.195 130.938 112.34L117.467 120.848C116.791 119.777 116.608 118.715 116.608 117.987H132.541ZM131.034 112.495C129.963 110.711 128.445 109.375 126.713 108.509L119.588 122.76C118.764 122.348 117.947 121.651 117.372 120.693L131.034 112.495ZM126.965 108.641C125.131 107.64 123.231 107.297 121.541 107.297V123.229C121.089 123.229 120.262 123.133 119.336 122.628L126.965 108.641Z" fill="white"/>
</g>
</g>
<defs>
<clipPath id="clip0_1_46">
<rect width="137" height="138" fill="white"/>
</clipPath>
</defs>
</svg>
