<svg width="35" height="35" viewBox="0 0 35 35" fill="none" xmlns="http://www.w3.org/2000/svg">
<g clip-path="url(#clip0_8_5)">
<path d="M0 17.1187C0 9.04888 -2.38419e-07 5.01396 2.50699 2.50699C5.01396 -2.38419e-07 9.04888 0 17.1187 0C25.1885 0 29.2236 -2.38419e-07 31.7304 2.50699C34.2375 5.01396 34.2375 9.04888 34.2375 17.1187C34.2375 25.1885 34.2375 29.2236 31.7304 31.7304C29.2236 34.2375 25.1885 34.2375 17.1187 34.2375C9.04888 34.2375 5.01396 34.2375 2.50699 31.7304C-2.38419e-07 29.2236 0 25.1885 0 17.1187Z" fill="#63A1BC"/>
<path d="M12.781 20.6349L25.8932 8.54154M17.0399 16.7059L12.7792 12.7768M25.8932 24.8702L19.7699 19.2234M13.6467 10.5826C13.6467 12.2735 12.2759 13.6442 10.5851 13.6442C8.89418 13.6442 7.52344 12.2735 7.52344 10.5826C7.52344 8.89173 8.89418 7.521 10.5851 7.521C12.2759 7.521 13.6467 8.89173 13.6467 10.5826ZM13.6467 22.8291C13.6467 24.52 12.2759 25.8907 10.5851 25.8907C8.89418 25.8907 7.52344 24.52 7.52344 22.8291C7.52344 21.1382 8.89418 19.7675 10.5851 19.7675C12.2759 19.7675 13.6467 21.1382 13.6467 22.8291Z" stroke="white" stroke-width="2.04108" stroke-linecap="round" stroke-linejoin="round"/>
</g>
<defs>
<clipPath id="clip0_8_5">
<rect width="35" height="35" fill="white"/>
</clipPath>
</defs>
</svg>
