<svg width="34" height="34" viewBox="0 0 34 34" fill="none" xmlns="http://www.w3.org/2000/svg">
<g clip-path="url(#clip0_8_14)">
<path d="M0 16.9302C0 8.94924 -2.38419e-07 4.95875 2.47938 2.47938C4.95875 -2.38419e-07 8.94924 0 16.9302 0C24.9111 0 28.9018 -2.38419e-07 31.381 2.47938C33.8605 4.95875 33.8605 8.94924 33.8605 16.9302C33.8605 24.9111 33.8605 28.9018 31.381 31.381C28.9018 33.8605 24.9111 33.8605 16.9302 33.8605C8.94924 33.8605 4.95875 33.8605 2.47938 31.381C-2.38419e-07 28.9018 0 24.9111 0 16.9302Z" fill="#63A1BC"/>
<path d="M19.4338 7.51062C20.1112 7.69212 20.5131 8.38839 20.3316 9.06577L15.9497 25.4191C15.7682 26.0964 15.0719 26.4985 14.3945 26.317C13.7171 26.1354 13.3152 25.4392 13.4967 24.7618L17.8786 8.40849C18.0601 7.73111 18.7564 7.32912 19.4338 7.51062Z" fill="white"/>
<path d="M21.9422 10.9366C22.4381 10.4407 23.242 10.4407 23.7378 10.9366L24.0907 11.2893C25.1663 12.3649 26.0632 13.2618 26.6795 14.0696C27.3301 14.9222 27.7864 15.8231 27.7864 16.9135C27.7864 18.004 27.3301 18.9049 26.6795 19.7575C26.0632 20.5652 25.1663 21.4622 24.0907 22.5378L23.7378 22.8904C23.242 23.3863 22.4381 23.3863 21.9422 22.8904C21.4463 22.3945 21.4463 21.5907 21.9422 21.0948L22.2326 20.8043C23.3867 19.6501 24.1601 18.873 24.6605 18.217C25.1387 17.5904 25.2468 17.2256 25.2468 16.9135C25.2468 16.6015 25.1387 16.2367 24.6605 15.6101C24.1601 14.954 23.3867 14.1769 22.2326 13.0228L21.9422 12.7323C21.4463 12.2365 21.4463 11.4325 21.9422 10.9366Z" fill="white"/>
<path d="M10.0875 10.9366C10.5834 10.4407 11.3873 10.4407 11.8832 10.9366C12.3791 11.4325 12.3791 12.2365 11.8832 12.7323L11.5927 13.0228C10.4387 14.1769 9.66537 14.954 9.16484 15.6101C8.68668 16.2367 8.5786 16.6015 8.5786 16.9135C8.5786 17.2256 8.68668 17.5904 9.16484 18.217C9.66537 18.873 10.4387 19.6501 11.5927 20.8043L11.8832 21.0948C12.3791 21.5907 12.3791 22.3945 11.8832 22.8904C11.3873 23.3863 10.5834 23.3863 10.0875 22.8904L9.73476 22.5378C8.65912 21.4622 7.76217 20.5652 7.14586 19.7575C6.49533 18.9049 6.03906 18.004 6.03906 16.9135C6.03906 15.8231 6.49533 14.9222 7.14586 14.0696C7.76217 13.2618 8.65912 12.3649 9.73476 11.2893L10.0875 10.9366Z" fill="white"/>
</g>
<defs>
<clipPath id="clip0_8_14">
<rect width="34" height="34" fill="white"/>
</clipPath>
</defs>
</svg>
