<svg width="34" height="34" viewBox="0 0 34 34" fill="none" xmlns="http://www.w3.org/2000/svg">
<g clip-path="url(#clip0_8_24)">
<path d="M0 16.9907C0 8.9812 -2.38419e-07 4.97646 2.48824 2.48824C4.97646 -2.38419e-07 8.9812 0 16.9907 0C25.0001 0 29.005 -2.38419e-07 31.4931 2.48824C33.9814 4.97646 33.9814 8.9812 33.9814 16.9907C33.9814 25.0001 33.9814 29.005 31.4931 31.4931C29.005 33.9814 25.0001 33.9814 16.9907 33.9814C8.9812 33.9814 4.97646 33.9814 2.48824 31.4931C-2.38419e-07 29.005 0 25.0001 0 16.9907Z" fill="#63A1BC"/>
<path fill-rule="evenodd" clip-rule="evenodd" d="M15.0321 26.5089L15.2936 26.0673C15.7127 25.3593 15.9221 25.0054 16.2559 24.808C16.5896 24.6105 17.025 24.5966 17.8956 24.5688C18.712 24.5426 19.2608 24.4714 19.7299 24.277C20.7177 23.8679 21.5024 23.0832 21.9115 22.0954C22.2184 21.3546 22.2184 20.4155 22.2184 18.5372V17.731C22.2184 15.0918 22.2184 13.7722 21.6244 12.8028C21.292 12.2604 20.8359 11.8044 20.2935 11.472C19.3241 10.8779 18.0046 10.8779 15.3654 10.8779H12.9467C10.3076 10.8779 8.988 10.8779 8.01863 11.472C7.47622 11.8044 7.02018 12.2604 6.68778 12.8028C6.09375 13.7722 6.09375 15.0918 6.09375 17.731V18.5372C6.09375 20.4155 6.09375 21.3546 6.40061 22.0954C6.80974 23.0832 7.5945 23.8679 8.58225 24.277C9.0514 24.4714 9.60009 24.5426 10.4165 24.5688C11.2871 24.5966 11.7225 24.6105 12.0562 24.808C12.3899 25.0054 12.5995 25.3593 13.0185 26.0673L13.2799 26.5089C13.6695 27.1671 14.6426 27.1671 15.0321 26.5089ZM17.6833 18.9403C18.24 18.9403 18.6911 18.489 18.6911 17.9324C18.6911 17.3759 18.24 16.9247 17.6833 16.9247C17.1267 16.9247 16.6756 17.3759 16.6756 17.9324C16.6756 18.489 17.1267 18.9403 17.6833 18.9403ZM15.1639 17.9324C15.1639 18.489 14.7127 18.9403 14.1561 18.9403C13.5995 18.9403 13.1483 18.489 13.1483 17.9324C13.1483 17.3759 13.5995 16.9247 14.1561 16.9247C14.7127 16.9247 15.1639 17.3759 15.1639 17.9324ZM10.6288 18.9403C11.1854 18.9403 11.6366 18.489 11.6366 17.9324C11.6366 17.3759 11.1854 16.9247 10.6288 16.9247C10.0722 16.9247 9.62101 17.3759 9.62101 17.9324C9.62101 18.489 10.0722 18.9403 10.6288 18.9403Z" fill="white"/>
<path d="M19.8608 6.0918C21.0651 6.09179 22.0227 6.09179 22.7907 6.1648C23.5782 6.23967 24.244 6.39663 24.8371 6.76008C25.4473 7.13403 25.9604 7.64708 26.3343 8.2573C26.6978 8.85042 26.8547 9.51622 26.9296 10.3037C27.0026 11.0717 27.0026 12.0294 27.0026 13.2335V14.056C27.0026 14.9131 27.0026 15.5947 26.9648 16.1475C26.9263 16.7129 26.8457 17.1986 26.6573 17.6533C26.1971 18.7645 25.3143 19.6473 24.203 20.1076C24.1752 20.1191 24.1473 20.1303 24.1192 20.141C23.985 20.1923 23.8702 20.2362 23.7693 20.2689C23.784 19.7788 23.784 19.2204 23.784 18.5904V17.6574C23.784 16.401 23.784 15.3485 23.7026 14.4929C23.6175 13.5972 23.4322 12.7566 22.9588 11.984C22.4971 11.2306 21.8637 10.5971 21.1102 10.1354C20.3376 9.66197 19.4971 9.47669 18.6012 9.39153C17.7456 9.31017 16.6932 9.31019 15.4368 9.31022H12.8697C12.0164 9.3102 11.2572 9.31019 10.5898 9.33566C10.6209 9.22791 10.6635 9.10441 10.7135 8.95945C10.7986 8.71288 10.9061 8.47971 11.0424 8.2573C11.4163 7.64708 11.9293 7.13403 12.5396 6.76008C13.1327 6.39663 13.7985 6.23967 14.586 6.1648C15.354 6.09179 16.3115 6.09179 17.5158 6.0918H19.8608Z" fill="white"/>
</g>
<defs>
<clipPath id="clip0_8_24">
<rect width="34" height="34" fill="white"/>
</clipPath>
</defs>
</svg>
