<svg width="35" height="35" viewBox="0 0 35 35" fill="none" xmlns="http://www.w3.org/2000/svg">
<g clip-path="url(#clip0_8_32)">
<path d="M0 17.1187C0 9.04888 -2.38419e-07 5.01396 2.50699 2.50699C5.01396 -2.38419e-07 9.04888 0 17.1187 0C25.1885 0 29.2236 -2.38419e-07 31.7304 2.50699C34.2375 5.01396 34.2375 9.04888 34.2375 17.1187C34.2375 25.1885 34.2375 29.2236 31.7304 31.7304C29.2236 34.2375 25.1885 34.2375 17.1187 34.2375C9.04888 34.2375 5.01396 34.2375 2.50699 31.7304C-2.38419e-07 29.2236 0 25.1885 0 17.1187Z" fill="#63A1BC"/>
<path d="M17.3759 3.66919C12.4219 3.66919 8.40625 7.68488 8.40625 12.6388C8.40625 16.4149 13.6195 25.1154 16.0972 29.0371C16.3738 29.4761 16.8562 29.7428 17.375 29.7432C17.8936 29.7432 18.3768 29.477 18.6544 29.0384C21.1311 25.1167 26.3444 16.4149 26.3444 12.6388C26.3444 7.68488 22.3288 3.66919 17.3759 3.66919ZM17.3759 18.1147C14.5739 18.1147 12.3029 15.8438 12.3029 13.0421C12.3029 10.2402 14.574 7.9693 17.3759 7.9693C20.1775 7.9693 22.4486 10.2403 22.4486 13.0421C22.4486 15.8438 20.1775 18.1147 17.3759 18.1147Z" fill="white"/>
</g>
<defs>
<clipPath id="clip0_8_32">
<rect width="35" height="35" fill="white"/>
</clipPath>
</defs>
</svg>
