<svg width="80" height="80" viewBox="0 0 80 80" fill="none" xmlns="http://www.w3.org/2000/svg">
<g clip-path="url(#clip0_1_2)">
<mask id="mask0_1_2" style="mask-type:luminance" maskUnits="userSpaceOnUse" x="0" y="0" width="80" height="80">
<path d="M80 0H0V80H80V0Z" fill="white"/>
</mask>
<g mask="url(#mask0_1_2)">
<path d="M79.7934 17.543C79.4328 15.7265 78.6273 14.0641 77.5025 12.6909C77.2653 12.3916 77.0175 12.1237 76.7489 11.8557C74.7559 9.85289 71.9587 8.60352 68.903 8.60352H11.097C8.04125 8.60352 5.25406 9.85289 3.25172 11.8557C2.98375 12.1237 2.73594 12.3916 2.49813 12.6909C1.37266 14.064 0.567187 15.7265 0.216563 17.543C0.0725 18.2441 0 18.9687 0 19.7012V60.3001C0 61.8576 0.330312 63.3548 0.919375 64.7068C1.46578 65.9974 2.27141 67.1652 3.25156 68.1445C3.5 68.3923 3.74672 68.6201 4.01594 68.8466C5.93563 70.4365 8.41359 71.3966 11.097 71.3966H68.903C71.5873 71.3966 74.0761 70.4365 75.9847 68.8366C76.2531 68.6201 76.5011 68.3923 76.7489 68.1445C77.7286 67.1652 78.5341 65.9974 79.0917 64.7068V64.6968C79.6806 63.3448 79.9998 61.8576 79.9998 60.3002V19.7012C80 18.9687 79.9286 18.2441 79.7934 17.543ZM7.26703 15.8705C8.25844 14.8802 9.58984 14.2807 11.097 14.2807H68.903C70.4102 14.2807 71.7533 14.8802 72.733 15.8705C72.9083 16.047 73.0734 16.2435 73.2192 16.4388L42.9213 42.8443C42.0856 43.5766 41.0534 43.9384 40 43.9384C38.9572 43.9384 37.9256 43.5766 37.0789 42.8443L6.7925 16.4276C6.92656 16.2323 7.09172 16.047 7.26703 15.8705ZM5.67719 60.3001V22.3024L27.6028 41.4298L5.68828 60.5368C5.67719 60.4643 5.67719 60.3827 5.67719 60.3001ZM68.903 65.7184H11.097C10.1156 65.7184 9.19734 65.4604 8.41359 65.0071L31.5352 44.8573L33.6937 46.7351C35.5002 48.3048 37.7606 49.0998 40 49.0998C42.2509 49.0998 44.5112 48.3048 46.3175 46.7351L48.475 44.8573L71.5875 65.0071C70.8027 65.4604 69.8844 65.7184 68.903 65.7184ZM74.3228 60.3001C74.3228 60.3827 74.3228 60.4643 74.3122 60.5368L52.3978 41.4409L74.3228 22.3126V60.3001Z" fill="#78B595"/>
</g>
</g>
<defs>
<clipPath id="clip0_1_2">
<rect width="80" height="80" fill="white"/>
</clipPath>
</defs>
</svg>
