<svg width="73" height="73" viewBox="0 0 73 73" fill="none" xmlns="http://www.w3.org/2000/svg">
<path fill-rule="evenodd" clip-rule="evenodd" d="M60.8346 3.04102C65.8744 3.04102 69.9596 7.12643 69.9596 12.166V60.8327C69.9596 65.8724 65.8744 69.9577 60.8346 69.9577H12.168C7.12838 69.9577 3.04297 65.8724 3.04297 60.8327V12.166C3.04297 7.12643 7.12838 3.04102 12.168 3.04102H60.8346ZM60.8346 9.12435C62.5146 9.12435 63.8763 10.4862 63.8763 12.166V60.8327C63.8763 62.5126 62.5146 63.8744 60.8346 63.8744H45.6263V42.5824H51.9414C53.2505 42.5824 54.4128 41.7447 54.827 40.5025L56.1745 36.4601C56.6669 34.9828 55.5674 33.4574 54.0104 33.4574H45.6263V27.3741C45.6263 25.8533 47.1471 24.3324 48.668 24.3324H54.7513C56.4312 24.3324 57.793 22.9706 57.793 21.2908V19.2042C57.793 18.2217 57.1655 17.3408 56.2153 17.0901C52.2282 16.0379 48.668 16.0379 48.668 16.0379C41.0638 16.0379 36.5013 21.2908 36.5013 25.8533V33.4574H30.418C28.7381 33.4574 27.3763 34.8191 27.3763 36.499V39.5407C27.3763 41.2206 28.7381 42.5824 30.418 42.5824H36.5013V63.8744H12.168C10.4881 63.8744 9.1263 62.5126 9.1263 60.8327V12.166C9.1263 10.4862 10.4881 9.12435 12.168 9.12435H60.8346Z" fill="#78B595"/>
</svg>
