<svg width="72" height="72" viewBox="0 0 72 72" fill="none" xmlns="http://www.w3.org/2000/svg">
<path fill-rule="evenodd" clip-rule="evenodd" d="M36 54C45.9411 54 54 45.9411 54 36C54 26.0589 45.9411 18 36 18C26.0589 18 18 26.0589 18 36C18 45.9411 26.0589 54 36 54ZM36 48C42.6273 48 48 42.6273 48 36C48 29.3726 42.6273 24 36 24C29.3726 24 24 29.3726 24 36C24 42.6273 29.3726 48 36 48Z" fill="#78B595"/>
<path d="M54 15C52.3431 15 51 16.3432 51 18C51 19.6568 52.3431 21 54 21C55.6569 21 57 19.6568 57 18C57 16.3432 55.6569 15 54 15Z" fill="#78B595"/>
<path fill-rule="evenodd" clip-rule="evenodd" d="M4.96188 12.8282C3 16.6786 3 21.7191 3 31.8V40.2C3 50.2809 3 55.3215 4.96188 59.1717C6.6876 62.5587 9.44124 65.3124 12.8282 67.038C16.6786 69 21.7191 69 31.8 69H40.2C50.2809 69 55.3215 69 59.1717 67.038C62.5587 65.3124 65.3124 62.5587 67.038 59.1717C69 55.3215 69 50.2809 69 40.2V31.8C69 21.7191 69 16.6786 67.038 12.8282C65.3124 9.44124 62.5587 6.6876 59.1717 4.96188C55.3215 3 50.2809 3 40.2 3H31.8C21.7191 3 16.6786 3 12.8282 4.96188C9.44124 6.6876 6.6876 9.44124 4.96188 12.8282ZM40.2 9H31.8C26.6605 9 23.1667 9.00468 20.4662 9.2253C17.8357 9.44022 16.4905 9.82977 15.5521 10.3079C13.2942 11.4584 11.4584 13.2942 10.3079 15.5521C9.82977 16.4905 9.44022 17.8357 9.2253 20.4662C9.00468 23.1667 9 26.6605 9 31.8V40.2C9 45.3396 9.00468 48.8331 9.2253 51.5337C9.44022 54.1644 9.82977 55.5096 10.3079 56.448C11.4584 58.7058 13.2942 60.5415 15.5521 61.692C16.4905 62.1702 17.8357 62.5599 20.4662 62.7747C23.1667 62.9952 26.6605 63 31.8 63H40.2C45.3396 63 48.8331 62.9952 51.5337 62.7747C54.1644 62.5599 55.5096 62.1702 56.448 61.692C58.7058 60.5415 60.5415 58.7058 61.692 56.448C62.1702 55.5096 62.5599 54.1644 62.7747 51.5337C62.9952 48.8331 63 45.3396 63 40.2V31.8C63 26.6605 62.9952 23.1667 62.7747 20.4662C62.5599 17.8357 62.1702 16.4905 61.692 15.5521C60.5415 13.2942 58.7058 11.4584 56.448 10.3079C55.5096 9.82977 54.1644 9.44022 51.5337 9.2253C48.8331 9.00468 45.3396 9 40.2 9Z" fill="#78B595"/>
</svg>
